<?xml version="1.0" standalone="no"?>
<svg xmlns="http://www.w3.org/2000/svg" version="1.2" baseProfile="tiny" width="512" height="344">
<rect x="0" y="0" width="511" height="343" fill="rgb(101,73,48)" fill-opacity="1" />
<polygon points="360,24 82,212 511,221" fill="rgb(239,146,73)" fill-opacity="0.5019607843137255"/>
<polygon points="0,182 274,0 0,0" fill="rgb(25,53,53)" fill-opacity="0.5019607843137255"/>
<polygon points="511,343 155,343 324,172" fill="rgb(0,0,8)" fill-opacity="0.5019607843137255"/>
<polygon points="499,234 407,250 277,79" fill="rgb(238,145,79)" fill-opacity="0.5019607843137255"/>
<polygon points="0,230 0,343 206,251" fill="rgb(34,17,24)" fill-opacity="0.5019607843137255"/>
<polygon points="456,292 511,219 511,343" fill="rgb(33,14,17)" fill-opacity="0.5019607843137255"/>
<polygon points="170,266 74,157 298,220" fill="rgb(160,71,47)" fill-opacity="0.5019607843137255"/>
<polygon points="450,68 318,4 64,187" fill="rgb(132,109,64)" fill-opacity="0.5019607843137255"/>
<polygon points="0,343 511,343 57,315" fill="rgb(39,26,23)" fill-opacity="0.5019607843137255"/>
<polygon points="239,116 245,246 391,93" fill="rgb(219,133,67)" fill-opacity="0.5019607843137255"/>
<polygon points="511,235 511,145 325,5" fill="rgb(140,103,60)" fill-opacity="0.5019607843137255"/>
<polygon points="406,238 401,114 308,136" fill="rgb(218,157,83)" fill-opacity="0.5019607843137255"/>
<polygon points="511,176 392,231 463,305" fill="rgb(166,70,46)" fill-opacity="0.5019607843137255"/>
<polygon points="143,287 126,314 229,277" fill="rgb(195,82,50)" fill-opacity="0.5019607843137255"/>
<polygon points="511,123 511,0 389,0" fill="rgb(45,68,53)" fill-opacity="0.5019607843137255"/>
<polygon points="27,215 160,238 250,75" fill="rgb(136,83,52)" fill-opacity="0.5019607843137255"/>
<polygon points="225,238 99,233 119,304" fill="rgb(77,47,37)" fill-opacity="0.5019607843137255"/>
<polygon points="341,199 215,282 446,343" fill="rgb(22,23,23)" fill-opacity="0.5019607843137255"/>
<polygon points="182,290 114,343 228,330" fill="rgb(69,39,28)" fill-opacity="0.5019607843137255"/>
<polygon points="477,14 0,166 225,0" fill="rgb(93,89,59)" fill-opacity="0.5019607843137255"/>
<polygon points="328,163 275,218 420,259" fill="rgb(71,52,43)" fill-opacity="0.5019607843137255"/>
<polygon points="242,60 379,40 120,191" fill="rgb(143,103,59)" fill-opacity="0.5019607843137255"/>
<polygon points="143,290 136,324 0,308" fill="rgb(122,62,46)" fill-opacity="0.5019607843137255"/>
<polygon points="166,231 256,136 265,239" fill="rgb(191,90,53)" fill-opacity="0.5019607843137255"/>
<polygon points="351,129 280,208 271,144" fill="rgb(221,140,71)" fill-opacity="0.5019607843137255"/>
<polygon points="0,267 0,235 145,254" fill="rgb(30,30,29)" fill-opacity="0.5019607843137255"/>
<polygon points="402,69 515,196 493,242" fill="rgb(156,100,55)" fill-opacity="0.5019607843137255"/>
<polygon points="434,0 511,0 511,64" fill="rgb(52,56,45)" fill-opacity="0.5019607843137255"/>
<polygon points="139,0 0,105 0,0" fill="rgb(36,42,49)" fill-opacity="0.5019607843137255"/>
<polygon points="114,216 0,170 156,81" fill="rgb(93,73,53)" fill-opacity="0.5019607843137255"/>
<polygon points="113,297 0,284 149,281" fill="rgb(50,35,31)" fill-opacity="0.5019607843137255"/>
<polygon points="430,310 477,257 507,307" fill="rgb(87,51,36)" fill-opacity="0.5019607843137255"/>
<polygon points="338,44 511,156 445,28" fill="rgb(104,93,62)" fill-opacity="0.5019607843137255"/>
<polygon points="505,67 511,157 384,0" fill="rgb(85,79,54)" fill-opacity="0.5019607843137255"/>
<polygon points="397,217 350,185 354,139" fill="rgb(218,170,92)" fill-opacity="0.5019607843137255"/>
<polygon points="390,223 391,239 318,168" fill="rgb(134,81,54)" fill-opacity="0.5019607843137255"/>
<polygon points="220,0 51,183 0,139" fill="rgb(75,69,50)" fill-opacity="0.5019607843137255"/>
<polygon points="274,230 180,246 215,278" fill="rgb(118,49,36)" fill-opacity="0.5019607843137255"/>
<polygon points="181,129 68,206 131,239" fill="rgb(135,79,51)" fill-opacity="0.5019607843137255"/>
<polygon points="371,343 455,291 511,331" fill="rgb(55,35,24)" fill-opacity="0.5019607843137255"/>
<polygon points="422,129 200,139 351,66" fill="rgb(175,124,63)" fill-opacity="0.5019607843137255"/>
<polygon points="350,192 326,149 399,236" fill="rgb(169,98,60)" fill-opacity="0.5019607843137255"/>
<polygon points="283,124 397,115 465,210" fill="rgb(204,130,68)" fill-opacity="0.5019607843137255"/>
<polygon points="469,295 502,292 451,269" fill="rgb(134,71,48)" fill-opacity="0.5019607843137255"/>
<polygon points="511,210 409,249 495,243" fill="rgb(147,70,48)" fill-opacity="0.5019607843137255"/>
<polygon points="0,215 89,238 0,234" fill="rgb(89,65,42)" fill-opacity="0.5019607843137255"/>
<polygon points="445,283 425,265 452,264" fill="rgb(175,88,56)" fill-opacity="0.5019607843137255"/>
<polygon points="188,321 199,288 140,343" fill="rgb(94,45,26)" fill-opacity="0.5019607843137255"/>
<polygon points="292,199 329,155 349,180" fill="rgb(133,76,53)" fill-opacity="0.5019607843137255"/>
<polygon points="344,213 279,288 445,298" fill="rgb(26,24,22)" fill-opacity="0.5019607843137255"/>
<polygon points="54,338 0,337 32,321" fill="rgb(38,26,21)" fill-opacity="0.5019607843137255"/>
<polygon points="103,295 0,300 66,331" fill="rgb(99,60,44)" fill-opacity="0.5019607843137255"/>
<polygon points="433,172 482,210 402,238" fill="rgb(200,106,61)" fill-opacity="0.5019607843137255"/>
<polygon points="422,338 312,308 271,343" fill="rgb(23,25,25)" fill-opacity="0.5019607843137255"/>
<polygon points="472,336 511,343 511,308" fill="rgb(34,26,19)" fill-opacity="0.5019607843137255"/>
<polygon points="392,237 311,196 245,248" fill="rgb(50,40,33)" fill-opacity="0.5019607843137255"/>
<polygon points="488,184 328,38 432,70" fill="rgb(136,103,61)" fill-opacity="0.5019607843137255"/>
<polygon points="218,278 128,288 208,292" fill="rgb(168,85,48)" fill-opacity="0.5019607843137255"/>
<polygon points="162,0 54,13 59,92" fill="rgb(53,56,54)" fill-opacity="0.5019607843137255"/>
<polygon points="395,232 415,237 410,152" fill="rgb(213,128,69)" fill-opacity="0.5019607843137255"/>
<polygon points="303,187 221,183 272,222" fill="rgb(205,101,57)" fill-opacity="0.5019607843137255"/>
<polygon points="74,343 120,326 187,343" fill="rgb(59,36,24)" fill-opacity="0.5019607843137255"/>
<polygon points="225,275 126,285 149,234" fill="rgb(87,50,39)" fill-opacity="0.5019607843137255"/>
<polygon points="511,220 464,276 511,288" fill="rgb(45,34,29)" fill-opacity="0.5019607843137255"/>
<polygon points="475,168 503,227 515,207" fill="rgb(164,94,51)" fill-opacity="0.5019607843137255"/>
<polygon points="480,239 422,258 401,236" fill="rgb(154,71,49)" fill-opacity="0.5019607843137255"/>
<polygon points="437,190 418,158 395,181" fill="rgb(209,126,66)" fill-opacity="0.5019607843137255"/>
<polygon points="249,45 109,108 277,0" fill="rgb(73,79,56)" fill-opacity="0.5019607843137255"/>
<polygon points="511,216 461,280 511,225" fill="rgb(106,58,41)" fill-opacity="0.5019607843137255"/>
<polygon points="450,30 404,0 225,0" fill="rgb(83,85,55)" fill-opacity="0.5019607843137255"/>
<polygon points="239,0 119,87 126,0" fill="rgb(67,70,54)" fill-opacity="0.5019607843137255"/>
<polygon points="41,0 0,0 21,58" fill="rgb(39,43,44)" fill-opacity="0.5019607843137255"/>
<polygon points="362,7 404,28 75,147" fill="rgb(117,94,60)" fill-opacity="0.5019607843137255"/>
<polygon points="511,207 472,142 511,175" fill="rgb(138,90,48)" fill-opacity="0.5019607843137255"/>
<polygon points="506,118 511,41 511,149" fill="rgb(67,62,44)" fill-opacity="0.5019607843137255"/>
<polygon points="224,130 209,216 125,220" fill="rgb(166,90,53)" fill-opacity="0.5019607843137255"/>
<polygon points="198,181 169,135 281,94" fill="rgb(159,106,57)" fill-opacity="0.5019607843137255"/>
<polygon points="0,300 0,327 53,296" fill="rgb(88,56,43)" fill-opacity="0.5019607843137255"/>
<polygon points="154,343 276,279 324,336" fill="rgb(43,41,38)" fill-opacity="0.5019607843137255"/>
<polygon points="366,37 289,90 227,87" fill="rgb(133,104,61)" fill-opacity="0.5019607843137255"/>
<polygon points="208,235 209,275 262,237" fill="rgb(126,60,41)" fill-opacity="0.5019607843137255"/>
<polygon points="168,305 92,332 178,343" fill="rgb(77,43,28)" fill-opacity="0.5019607843137255"/>
<polygon points="86,295 189,308 53,313" fill="rgb(121,65,47)" fill-opacity="0.5019607843137255"/>
<polygon points="388,189 387,221 338,156" fill="rgb(220,167,90)" fill-opacity="0.5019607843137255"/>
<polygon points="0,298 1,236 26,292" fill="rgb(43,30,26)" fill-opacity="0.5019607843137255"/>
<polygon points="13,338 36,328 9,329" fill="rgb(31,24,19)" fill-opacity="0.5019607843137255"/>
<polygon points="230,267 246,243 295,221" fill="rgb(73,49,35)" fill-opacity="0.5019607843137255"/>
<polygon points="82,334 112,332 67,309" fill="rgb(89,54,42)" fill-opacity="0.5019607843137255"/>
<polygon points="229,48 393,0 262,0" fill="rgb(85,83,55)" fill-opacity="0.5019607843137255"/>
<polygon points="218,149 260,102 256,165" fill="rgb(178,116,62)" fill-opacity="0.5019607843137255"/>
<polygon points="159,225 62,227 107,221" fill="rgb(73,45,37)" fill-opacity="0.5019607843137255"/>
<polygon points="451,308 478,343 362,343" fill="rgb(52,37,27)" fill-opacity="0.5019607843137255"/>
<polygon points="180,279 119,304 169,309" fill="rgb(152,77,51)" fill-opacity="0.5019607843137255"/>
<polygon points="363,124 321,152 391,175" fill="rgb(210,147,78)" fill-opacity="0.5019607843137255"/>
<polygon points="398,280 399,239 412,249" fill="rgb(46,42,37)" fill-opacity="0.5019607843137255"/>
<polygon points="181,218 139,226 215,226" fill="rgb(119,59,45)" fill-opacity="0.5019607843137255"/>
<polygon points="195,247 221,277 131,269" fill="rgb(100,58,42)" fill-opacity="0.5019607843137255"/>
<polygon points="439,57 482,158 428,107" fill="rgb(115,93,59)" fill-opacity="0.5019607843137255"/>
<polygon points="436,265 471,268 445,279" fill="rgb(153,78,53)" fill-opacity="0.5019607843137255"/>
<polygon points="415,167 336,91 389,82" fill="rgb(174,120,64)" fill-opacity="0.5019607843137255"/>
<polygon points="378,311 340,290 293,310" fill="rgb(43,36,33)" fill-opacity="0.5019607843137255"/>
<polygon points="297,127 342,141 286,200" fill="rgb(213,141,71)" fill-opacity="0.5019607843137255"/>
<polygon points="273,19 297,52 169,98" fill="rgb(105,91,61)" fill-opacity="0.5019607843137255"/>
<polygon points="449,291 432,272 496,297" fill="rgb(101,56,39)" fill-opacity="0.5019607843137255"/>
<polygon points="171,257 38,269 81,233" fill="rgb(56,43,35)" fill-opacity="0.5019607843137255"/>
<polygon points="246,234 241,226 125,228" fill="rgb(192,105,58)" fill-opacity="0.5019607843137255"/>
<polygon points="273,281 308,293 255,343" fill="rgb(49,38,33)" fill-opacity="0.5019607843137255"/>
<polygon points="511,17 492,0 511,0" fill="rgb(39,38,32)" fill-opacity="0.5019607843137255"/>
<polygon points="236,162 278,212 281,148" fill="rgb(207,115,62)" fill-opacity="0.5019607843137255"/>
<polygon points="262,233 308,187 265,239" fill="rgb(91,65,45)" fill-opacity="0.5019607843137255"/>
<polygon points="324,194 373,220 304,216" fill="rgb(60,45,34)" fill-opacity="0.5019607843137255"/>
<polygon points="173,281 136,234 102,240" fill="rgb(73,48,38)" fill-opacity="0.5019607843137255"/>
<polygon points="219,322 251,249 179,325" fill="rgb(42,37,33)" fill-opacity="0.5019607843137255"/>
<polygon points="1,118 0,55 93,57" fill="rgb(57,58,49)" fill-opacity="0.5019607843137255"/>
<polygon points="390,223 400,237 476,234" fill="rgb(196,110,60)" fill-opacity="0.5019607843137255"/>
<polygon points="172,79 150,139 14,222" fill="rgb(107,81,54)" fill-opacity="0.5019607843137255"/>
<polygon points="140,324 118,319 173,303" fill="rgb(99,51,36)" fill-opacity="0.5019607843137255"/>
<polygon points="416,8 487,9 511,92" fill="rgb(71,71,53)" fill-opacity="0.5019607843137255"/>
<polygon points="208,317 248,278 185,297" fill="rgb(42,30,26)" fill-opacity="0.5019607843137255"/>
<polygon points="105,204 145,219 101,219" fill="rgb(156,81,56)" fill-opacity="0.5019607843137255"/>
<polygon points="460,213 505,221 432,165" fill="rgb(178,100,54)" fill-opacity="0.5019607843137255"/>
<polygon points="319,112 239,117 291,84" fill="rgb(162,114,61)" fill-opacity="0.5019607843137255"/>
<polygon points="165,307 172,320 148,322" fill="rgb(40,35,29)" fill-opacity="0.5019607843137255"/>
<polygon points="178,303 179,294 207,293" fill="rgb(60,26,21)" fill-opacity="0.5019607843137255"/>
<polygon points="40,176 0,113 0,194" fill="rgb(80,65,47)" fill-opacity="0.5019607843137255"/>
<polygon points="511,249 511,293 486,276" fill="rgb(41,31,27)" fill-opacity="0.5019607843137255"/>
<polygon points="353,198 334,175 308,191" fill="rgb(93,65,48)" fill-opacity="0.5019607843137255"/>
<polygon points="180,328 154,335 199,287" fill="rgb(97,51,31)" fill-opacity="0.5019607843137255"/>
<polygon points="21,206 85,126 137,122" fill="rgb(94,76,52)" fill-opacity="0.5019607843137255"/>
<polygon points="258,233 276,219 214,214" fill="rgb(171,81,52)" fill-opacity="0.5019607843137255"/>
<polygon points="0,234 0,227 43,235" fill="rgb(100,79,48)" fill-opacity="0.5019607843137255"/>
<polygon points="230,249 265,234 195,241" fill="rgb(132,66,44)" fill-opacity="0.5019607843137255"/>
<polygon points="297,28 357,0 343,37" fill="rgb(101,88,58)" fill-opacity="0.5019607843137255"/>
<polygon points="406,244 355,206 375,234" fill="rgb(82,56,40)" fill-opacity="0.5019607843137255"/>
<polygon points="186,239 155,241 126,301" fill="rgb(81,52,40)" fill-opacity="0.5019607843137255"/>
<polygon points="306,79 241,92 299,98" fill="rgb(145,111,62)" fill-opacity="0.5019607843137255"/>
<polygon points="430,303 451,289 497,325" fill="rgb(74,40,28)" fill-opacity="0.5019607843137255"/>
<polygon points="26,343 37,317 89,333" fill="rgb(68,43,34)" fill-opacity="0.5019607843137255"/>
<polygon points="482,289 437,275 464,269" fill="rgb(133,69,48)" fill-opacity="0.5019607843137255"/>
<polygon points="511,171 502,124 363,0" fill="rgb(103,85,56)" fill-opacity="0.5019607843137255"/>
<polygon points="123,205 113,163 157,146" fill="rgb(125,83,51)" fill-opacity="0.5019607843137255"/>
<polygon points="318,83 316,55 401,82" fill="rgb(148,112,64)" fill-opacity="0.5019607843137255"/></svg>