<?xml version="1.0" standalone="no"?>
<svg xmlns="http://www.w3.org/2000/svg" version="1.2" baseProfile="tiny" width="768" height="512">
<rect x="0" y="0" width="767" height="511" fill="rgb(77,100,92)" fill-opacity="1" />
<polygon points="106,373 151,147 607,361" fill="rgb(202,190,130)" fill-opacity="0.4392156862745098"/>
<polygon points="767,253 0,259 0,125" fill="rgb(103,190,210)" fill-opacity="0.4392156862745098"/>
<polygon points="767,511 353,511 767,241" fill="rgb(47,29,10)" fill-opacity="0.4392156862745098"/>
<polygon points="424,511 355,511 380,262" fill="rgb(255,179,32)" fill-opacity="0.4392156862745098"/>
<polygon points="0,458 0,335 378,252" fill="rgb(145,111,54)" fill-opacity="0.4392156862745098"/>
<polygon points="383,257 593,357 634,328" fill="rgb(78,41,4)" fill-opacity="0.4392156862745098"/>
<polygon points="0,451 221,341 33,426" fill="rgb(255,250,179)" fill-opacity="0.4392156862745098"/>
<polygon points="378,511 399,511 384,311" fill="rgb(24,48,75)" fill-opacity="0.4392156862745098"/>
<polygon points="767,234 0,159 767,0" fill="rgb(27,91,122)" fill-opacity="0.4392156862745098"/>
<polygon points="333,208 0,0 0,195" fill="rgb(35,87,109)" fill-opacity="0.4392156862745098"/>
<polygon points="217,159 767,187 767,262" fill="rgb(99,165,165)" fill-opacity="0.4392156862745098"/>
<polygon points="767,163 767,0 0,0" fill="rgb(12,48,73)" fill-opacity="0.4392156862745098"/>
<polygon points="416,468 399,361 577,367" fill="rgb(63,45,19)" fill-opacity="0.4392156862745098"/>
<polygon points="527,330 767,450 767,441" fill="rgb(255,225,116)" fill-opacity="0.4392156862745098"/>
<polygon points="142,511 0,501 184,359" fill="rgb(69,57,30)" fill-opacity="0.4392156862745098"/>
<polygon points="633,367 143,357 386,258" fill="rgb(185,153,87)" fill-opacity="0.4392156862745098"/>
<polygon points="438,210 664,261 155,250" fill="rgb(151,191,180)" fill-opacity="0.4392156862745098"/>
<polygon points="394,352 399,329 528,389" fill="rgb(113,102,65)" fill-opacity="0.4392156862745098"/>
<polygon points="35,355 56,258 382,256" fill="rgb(67,95,99)" fill-opacity="0.4392156862745098"/>
<polygon points="350,511 374,347 0,452" fill="rgb(97,85,48)" fill-opacity="0.4392156862745098"/>
<polygon points="0,449 107,511 0,511" fill="rgb(38,40,31)" fill-opacity="0.4392156862745098"/>
<polygon points="159,123 382,82 0,1" fill="rgb(10,60,94)" fill-opacity="0.4392156862745098"/>
<polygon points="130,398 85,511 0,452" fill="rgb(59,68,57)" fill-opacity="0.4392156862745098"/>
<polygon points="102,269 180,215 0,236" fill="rgb(165,194,179)" fill-opacity="0.4392156862745098"/>
<polygon points="767,388 767,418 626,355" fill="rgb(4,12,20)" fill-opacity="0.4392156862745098"/>
<polygon points="220,511 83,511 316,341" fill="rgb(129,121,79)" fill-opacity="0.4392156862745098"/>
<polygon points="477,365 500,327 632,361" fill="rgb(127,108,64)" fill-opacity="0.4392156862745098"/>
<polygon points="61,344 0,333 0,381" fill="rgb(60,67,58)" fill-opacity="0.4392156862745098"/>
<polygon points="423,511 389,332 399,511" fill="rgb(236,181,54)" fill-opacity="0.4392156862745098"/>
<polygon points="0,415 279,299 0,401" fill="rgb(61,53,28)" fill-opacity="0.4392156862745098"/>
<polygon points="364,268 373,358 167,362" fill="rgb(180,176,129)" fill-opacity="0.4392156862745098"/>
<polygon points="32,118 767,176 155,220" fill="rgb(70,120,129)" fill-opacity="0.4392156862745098"/>
<polygon points="324,255 273,264 391,256" fill="rgb(40,56,54)" fill-opacity="0.4392156862745098"/>
<polygon points="740,318 736,376 725,278" fill="rgb(6,19,27)" fill-opacity="0.4392156862745098"/>
<polygon points="767,91 767,213 367,66" fill="rgb(61,99,105)" fill-opacity="0.4392156862745098"/>
<polygon points="767,216 679,259 0,190" fill="rgb(99,160,156)" fill-opacity="0.4392156862745098"/>
<polygon points="28,434 41,354 269,290" fill="rgb(141,118,66)" fill-opacity="0.4392156862745098"/>
<polygon points="631,369 594,367 748,425" fill="rgb(160,136,80)" fill-opacity="0.4392156862745098"/>
<polygon points="0,98 106,83 0,0" fill="rgb(25,58,78)" fill-opacity="0.4392156862745098"/>
<polygon points="17,328 33,287 40,365" fill="rgb(140,109,50)" fill-opacity="0.4392156862745098"/>
<polygon points="478,294 668,364 636,364" fill="rgb(0,7,25)" fill-opacity="0.4392156862745098"/>
<polygon points="253,257 57,241 272,221" fill="rgb(155,186,183)" fill-opacity="0.4392156862745098"/>
<polygon points="102,430 203,366 338,353" fill="rgb(85,83,57)" fill-opacity="0.4392156862745098"/>
<polygon points="767,367 566,310 767,382" fill="rgb(15,23,27)" fill-opacity="0.4392156862745098"/>
<polygon points="767,511 658,396 630,511" fill="rgb(24,35,38)" fill-opacity="0.4392156862745098"/>
<polygon points="22,433 0,444 0,452" fill="rgb(229,215,143)" fill-opacity="0.4392156862745098"/>
<polygon points="767,252 548,263 716,355" fill="rgb(53,83,90)" fill-opacity="0.4392156862745098"/>
<polygon points="767,450 767,510 675,413" fill="rgb(21,31,34)" fill-opacity="0.4392156862745098"/>
<polygon points="379,511 375,331 355,511" fill="rgb(233,176,59)" fill-opacity="0.4392156862745098"/>
<polygon points="467,349 614,480 510,451" fill="rgb(100,94,65)" fill-opacity="0.4392156862745098"/>
<polygon points="518,235 251,220 384,257" fill="rgb(131,176,169)" fill-opacity="0.4392156862745098"/>
<polygon points="38,293 0,266 0,334" fill="rgb(55,70,68)" fill-opacity="0.4392156862745098"/>
<polygon points="25,426 296,296 10,413" fill="rgb(152,145,97)" fill-opacity="0.4392156862745098"/>
<polygon points="579,105 0,161 0,58" fill="rgb(51,90,102)" fill-opacity="0.4392156862745098"/>
<polygon points="402,255 377,258 537,290" fill="rgb(87,71,45)" fill-opacity="0.4392156862745098"/>
<polygon points="361,359 225,511 355,511" fill="rgb(61,66,52)" fill-opacity="0.4392156862745098"/>
<polygon points="571,511 441,352 441,511" fill="rgb(55,62,53)" fill-opacity="0.4392156862745098"/>
<polygon points="642,276 645,328 639,312" fill="rgb(199,148,56)" fill-opacity="0.4392156862745098"/>
<polygon points="120,364 38,386 0,415" fill="rgb(60,64,50)" fill-opacity="0.4392156862745098"/>
<polygon points="767,112 413,0 767,0" fill="rgb(36,64,72)" fill-opacity="0.4392156862745098"/>
<polygon points="557,223 494,257 735,257" fill="rgb(128,160,152)" fill-opacity="0.4392156862745098"/>
<polygon points="448,271 528,325 465,298" fill="rgb(77,77,55)" fill-opacity="0.4392156862745098"/>
<polygon points="79,262 0,257 0,215" fill="rgb(138,165,154)" fill-opacity="0.4392156862745098"/>
<polygon points="34,305 43,299 223,279" fill="rgb(119,63,3)" fill-opacity="0.4392156862745098"/>
<polygon points="62,351 157,325 43,360" fill="rgb(53,52,36)" fill-opacity="0.4392156862745098"/>
<polygon points="113,402 217,352 125,374" fill="rgb(167,149,93)" fill-opacity="0.4392156862745098"/>
<polygon points="542,293 569,297 512,284" fill="rgb(14,14,15)" fill-opacity="0.4392156862745098"/>
<polygon points="120,280 123,350 132,301" fill="rgb(158,120,44)" fill-opacity="0.4392156862745098"/>
<polygon points="767,224 573,231 767,257" fill="rgb(116,151,147)" fill-opacity="0.4392156862745098"/>
<polygon points="262,358 304,372 315,351" fill="rgb(134,133,95)" fill-opacity="0.4392156862745098"/>
<polygon points="456,228 729,211 118,168" fill="rgb(78,138,142)" fill-opacity="0.4392156862745098"/>
<polygon points="100,264 135,258 48,264" fill="rgb(54,57,45)" fill-opacity="0.4392156862745098"/>
<polygon points="236,210 10,216 16,238" fill="rgb(104,169,164)" fill-opacity="0.4392156862745098"/>
<polygon points="767,367 767,249 734,321" fill="rgb(42,78,90)" fill-opacity="0.4392156862745098"/>
<polygon points="11,430 0,442 92,399" fill="rgb(56,64,50)" fill-opacity="0.4392156862745098"/>
<polygon points="206,243 113,259 146,213" fill="rgb(139,176,171)" fill-opacity="0.4392156862745098"/>
<polygon points="126,311 174,299 267,282" fill="rgb(226,181,87)" fill-opacity="0.4392156862745098"/>
<polygon points="350,353 422,369 426,274" fill="rgb(155,136,79)" fill-opacity="0.4392156862745098"/>
<polygon points="485,296 470,293 426,274" fill="rgb(0,5,28)" fill-opacity="0.4392156862745098"/>
<polygon points="356,360 317,443 302,368" fill="rgb(68,79,66)" fill-opacity="0.4392156862745098"/>
<polygon points="387,291 502,310 394,313" fill="rgb(133,119,81)" fill-opacity="0.4392156862745098"/>
<polygon points="637,328 637,269 640,324" fill="rgb(3,0,0)" fill-opacity="0.4392156862745098"/>
<polygon points="266,264 351,263 225,303" fill="rgb(127,137,110)" fill-opacity="0.4392156862745098"/>
<polygon points="130,333 124,335 130,323" fill="rgb(30,36,30)" fill-opacity="0.4392156862745098"/>
<polygon points="626,257 696,349 737,262" fill="rgb(58,82,80)" fill-opacity="0.4392156862745098"/>
<polygon points="37,363 0,371 39,355" fill="rgb(23,27,25)" fill-opacity="0.4392156862745098"/>
<polygon points="314,262 127,256 134,263" fill="rgb(39,57,52)" fill-opacity="0.4392156862745098"/>
<polygon points="0,374 162,337 2,400" fill="rgb(143,116,62)" fill-opacity="0.4392156862745098"/>
<polygon points="0,0 0,69 623,0" fill="rgb(31,66,80)" fill-opacity="0.4392156862745098"/>
<polygon points="526,362 656,401 635,484" fill="rgb(42,51,47)" fill-opacity="0.4392156862745098"/>
<polygon points="36,254 3,265 28,266" fill="rgb(105,134,126)" fill-opacity="0.4392156862745098"/>
<polygon points="242,328 135,379 158,373" fill="rgb(224,219,167)" fill-opacity="0.4392156862745098"/>
<polygon points="554,279 545,312 548,276" fill="rgb(39,22,5)" fill-opacity="0.4392156862745098"/>
<polygon points="181,376 375,315 320,294" fill="rgb(173,169,122)" fill-opacity="0.4392156862745098"/>
<polygon points="34,299 0,307 21,311" fill="rgb(71,41,15)" fill-opacity="0.4392156862745098"/>
<polygon points="440,485 423,511 401,369" fill="rgb(85,88,66)" fill-opacity="0.4392156862745098"/>
<polygon points="643,298 717,300 655,341" fill="rgb(75,98,94)" fill-opacity="0.4392156862745098"/>
<polygon points="67,264 311,264 73,296" fill="rgb(85,124,125)" fill-opacity="0.4392156862745098"/>
<polygon points="441,263 544,277 537,261" fill="rgb(105,131,127)" fill-opacity="0.4392156862745098"/>
<polygon points="522,267 522,302 526,282" fill="rgb(18,11,6)" fill-opacity="0.4392156862745098"/>
<polygon points="42,511 169,368 153,511" fill="rgb(73,85,71)" fill-opacity="0.4392156862745098"/>
<polygon points="402,361 427,367 396,366" fill="rgb(177,161,105)" fill-opacity="0.4392156862745098"/>
<polygon points="289,303 377,258 325,263" fill="rgb(150,120,60)" fill-opacity="0.4392156862745098"/>
<polygon points="623,382 671,396 588,358" fill="rgb(200,175,110)" fill-opacity="0.4392156862745098"/>
<polygon points="129,256 87,269 175,300" fill="rgb(84,111,104)" fill-opacity="0.4392156862745098"/>
<polygon points="182,280 184,328 174,282" fill="rgb(162,118,40)" fill-opacity="0.4392156862745098"/>
<polygon points="101,317 31,329 149,304" fill="rgb(219,169,79)" fill-opacity="0.4392156862745098"/>
<polygon points="496,271 501,302 390,258" fill="rgb(101,94,68)" fill-opacity="0.4392156862745098"/>
<polygon points="419,355 418,354 404,355" fill="rgb(0,19,36)" fill-opacity="0.4392156862745098"/>
<polygon points="297,354 186,366 173,375" fill="rgb(139,131,91)" fill-opacity="0.4392156862745098"/>
<polygon points="581,314 664,328 637,329" fill="rgb(96,87,61)" fill-opacity="0.4392156862745098"/>
<polygon points="58,511 0,511 0,466" fill="rgb(45,54,48)" fill-opacity="0.4392156862745098"/>
<polygon points="739,300 725,280 730,330" fill="rgb(30,28,23)" fill-opacity="0.4392156862745098"/>
<polygon points="767,401 612,342 741,364" fill="rgb(80,71,47)" fill-opacity="0.4392156862745098"/>
<polygon points="254,324 214,343 299,299" fill="rgb(231,222,164)" fill-opacity="0.4392156862745098"/>
<polygon points="127,329 182,314 149,306" fill="rgb(77,109,118)" fill-opacity="0.4392156862745098"/>
<polygon points="558,308 593,320 496,291" fill="rgb(0,7,28)" fill-opacity="0.4392156862745098"/>
<polygon points="283,439 129,463 285,354" fill="rgb(109,112,82)" fill-opacity="0.4392156862745098"/>
<polygon points="204,511 342,511 221,486" fill="rgb(78,77,53)" fill-opacity="0.4392156862745098"/>
<polygon points="367,205 68,204 316,237" fill="rgb(83,155,159)" fill-opacity="0.4392156862745098"/>
<polygon points="279,303 176,335 321,282" fill="rgb(96,85,50)" fill-opacity="0.4392156862745098"/>
<polygon points="0,366 29,332 0,340" fill="rgb(41,72,86)" fill-opacity="0.4392156862745098"/>
<polygon points="29,296 26,305 16,298" fill="rgb(150,123,64)" fill-opacity="0.4392156862745098"/>
<polygon points="381,354 380,417 390,364" fill="rgb(75,81,69)" fill-opacity="0.4392156862745098"/>
<polygon points="222,369 138,383 0,460" fill="rgb(96,93,63)" fill-opacity="0.4392156862745098"/>
<polygon points="493,253 472,257 431,256" fill="rgb(148,177,169)" fill-opacity="0.4392156862745098"/>
<polygon points="236,312 347,270 249,295" fill="rgb(163,125,63)" fill-opacity="0.4392156862745098"/>
<polygon points="326,256 290,219 193,226" fill="rgb(140,179,174)" fill-opacity="0.4392156862745098"/>
<polygon points="50,511 133,418 0,465" fill="rgb(58,69,61)" fill-opacity="0.4392156862745098"/>
<polygon points="45,473 156,377 279,363" fill="rgb(73,84,69)" fill-opacity="0.4392156862745098"/>
<polygon points="190,282 303,268 248,274" fill="rgb(221,182,97)" fill-opacity="0.4392156862745098"/>
<polygon points="130,92 267,101 119,177" fill="rgb(61,103,112)" fill-opacity="0.4392156862745098"/>
<polygon points="329,292 423,275 372,312" fill="rgb(156,142,92)" fill-opacity="0.4392156862745098"/>
<polygon points="619,343 647,344 493,297" fill="rgb(123,103,59)" fill-opacity="0.4392156862745098"/>
<polygon points="221,304 238,291 220,293" fill="rgb(81,126,141)" fill-opacity="0.4392156862745098"/>
<polygon points="131,329 178,316 132,333" fill="rgb(187,158,88)" fill-opacity="0.4392156862745098"/>
<polygon points="336,173 0,206 7,150" fill="rgb(75,123,127)" fill-opacity="0.4392156862745098"/>
<polygon points="674,446 510,361 472,368" fill="rgb(55,63,54)" fill-opacity="0.4392156862745098"/>
<polygon points="767,441 738,428 643,380" fill="rgb(41,42,36)" fill-opacity="0.4392156862745098"/>
<polygon points="34,296 31,307 35,343" fill="rgb(176,168,123)" fill-opacity="0.4392156862745098"/>
<polygon points="411,446 387,291 389,365" fill="rgb(213,162,46)" fill-opacity="0.4392156862745098"/>
<polygon points="253,343 172,366 252,326" fill="rgb(151,141,94)" fill-opacity="0.4392156862745098"/>
<polygon points="743,260 763,243 627,246" fill="rgb(87,127,125)" fill-opacity="0.4392156862745098"/>
<polygon points="426,262 581,284 486,271" fill="rgb(8,4,5)" fill-opacity="0.4392156862745098"/>
<polygon points="117,367 52,381 174,336" fill="rgb(92,83,52)" fill-opacity="0.4392156862745098"/>
<polygon points="443,367 430,361 437,464" fill="rgb(55,65,55)" fill-opacity="0.4392156862745098"/>
<polygon points="136,511 229,511 155,462" fill="rgb(109,105,69)" fill-opacity="0.4392156862745098"/>
<polygon points="38,353 42,330 126,312" fill="rgb(62,86,89)" fill-opacity="0.4392156862745098"/>
<polygon points="23,358 23,338 37,346" fill="rgb(145,122,63)" fill-opacity="0.4392156862745098"/>
<polygon points="668,378 510,310 591,359" fill="rgb(97,88,58)" fill-opacity="0.4392156862745098"/>
<polygon points="261,345 324,310 291,311" fill="rgb(176,174,131)" fill-opacity="0.4392156862745098"/>
<polygon points="96,162 767,134 767,204" fill="rgb(61,106,117)" fill-opacity="0.4392156862745098"/></svg>