<?xml version="1.0" standalone="no"?>
<svg xmlns="http://www.w3.org/2000/svg" version="1.2" baseProfile="tiny" width="768" height="512">
<rect x="0" y="0" width="767" height="511" fill="rgb(79,109,178)" fill-opacity="1" />
<g transform="translate(503 407) rotate(100) scale(215 116)"><ellipse cx="0" cy="0" rx="1" ry="1" fill="rgb(255,255,225)" fill-opacity="0.5019607843137255" /></g>
<g transform="translate(427 267) rotate(15) scale(41 104)"><ellipse cx="0" cy="0" rx="1" ry="1" fill="rgb(122,20,0)" fill-opacity="0.5019607843137255" /></g>
<g transform="translate(532 450) rotate(40) scale(167 103)"><ellipse cx="0" cy="0" rx="1" ry="1" fill="rgb(255,245,233)" fill-opacity="0.5019607843137255" /></g>
<g transform="translate(460 118) rotate(164) scale(80 29)"><ellipse cx="0" cy="0" rx="1" ry="1" fill="rgb(255,255,244)" fill-opacity="0.5019607843137255" /></g>
<g transform="translate(147 216) rotate(101) scale(767 228)"><ellipse cx="0" cy="0" rx="1" ry="1" fill="rgb(9,68,177)" fill-opacity="0.5019607843137255" /></g>
<g transform="translate(368 153) rotate(116) scale(23 73)"><ellipse cx="0" cy="0" rx="1" ry="1" fill="rgb(223,67,0)" fill-opacity="0.5019607843137255" /></g>
<g transform="translate(492 355) rotate(308) scale(102 51)"><ellipse cx="0" cy="0" rx="1" ry="1" fill="rgb(255,255,252)" fill-opacity="0.5019607843137255" /></g>
<g transform="translate(445 134) rotate(275) scale(40 44)"><ellipse cx="0" cy="0" rx="1" ry="1" fill="rgb(255,231,211)" fill-opacity="0.5019607843137255" /></g>
<g transform="translate(694 213) rotate(360) scale(109 261)"><ellipse cx="0" cy="0" rx="1" ry="1" fill="rgb(10,63,174)" fill-opacity="0.5019607843137255" /></g>
<g transform="translate(402 341) rotate(258) scale(36 36)"><ellipse cx="0" cy="0" rx="1" ry="1" fill="rgb(180,85,39)" fill-opacity="0.5019607843137255" /></g>
<g transform="translate(658 460) rotate(320) scale(19 136)"><ellipse cx="0" cy="0" rx="1" ry="1" fill="rgb(166,147,155)" fill-opacity="0.5019607843137255" /></g>
<g transform="translate(543 168) rotate(324) scale(65 84)"><ellipse cx="0" cy="0" rx="1" ry="1" fill="rgb(203,163,139)" fill-opacity="0.5019607843137255" /></g>
<g transform="translate(496 152) rotate(314) scale(28 19)"><ellipse cx="0" cy="0" rx="1" ry="1" fill="rgb(97,64,48)" fill-opacity="0.5019607843137255" /></g>
<g transform="translate(757 489) rotate(197) scale(43 79)"><ellipse cx="0" cy="0" rx="1" ry="1" fill="rgb(30,68,147)" fill-opacity="0.5019607843137255" /></g>
<g transform="translate(427 208) rotate(343) scale(24 49)"><ellipse cx="0" cy="0" rx="1" ry="1" fill="rgb(23,0,0)" fill-opacity="0.5019607843137255" /></g>
<g transform="translate(383 274) rotate(19) scale(16 71)"><ellipse cx="0" cy="0" rx="1" ry="1" fill="rgb(18,112,253)" fill-opacity="0.5019607843137255" /></g>
<g transform="translate(579 19) rotate(83) scale(63 215)"><ellipse cx="0" cy="0" rx="1" ry="1" fill="rgb(6,60,185)" fill-opacity="0.5019607843137255" /></g>
<g transform="translate(29 202) rotate(193) scale(79 763)"><ellipse cx="0" cy="0" rx="1" ry="1" fill="rgb(20,64,146)" fill-opacity="0.5019607843137255" /></g>
<g transform="translate(370 155) rotate(121) scale(19 69)"><ellipse cx="0" cy="0" rx="1" ry="1" fill="rgb(155,73,0)" fill-opacity="0.5019607843137255" /></g>
<g transform="translate(425 290) rotate(218) scale(10 110)"><ellipse cx="0" cy="0" rx="1" ry="1" fill="rgb(255,144,52)" fill-opacity="0.5019607843137255" /></g>
<g transform="translate(510 302) rotate(72) scale(19 48)"><ellipse cx="0" cy="0" rx="1" ry="1" fill="rgb(255,248,242)" fill-opacity="0.5019607843137255" /></g>
<g transform="translate(298 267) rotate(15) scale(97 117)"><ellipse cx="0" cy="0" rx="1" ry="1" fill="rgb(54,110,215)" fill-opacity="0.5019607843137255" /></g>
<g transform="translate(459 115) rotate(347) scale(71 20)"><ellipse cx="0" cy="0" rx="1" ry="1" fill="rgb(247,236,247)" fill-opacity="0.5019607843137255" /></g>
<g transform="translate(606 89) rotate(208) scale(372 32)"><ellipse cx="0" cy="0" rx="1" ry="1" fill="rgb(31,80,186)" fill-opacity="0.5019607843137255" /></g>
<g transform="translate(453 279) rotate(148) scale(39 30)"><ellipse cx="0" cy="0" rx="1" ry="1" fill="rgb(159,102,75)" fill-opacity="0.5019607843137255" /></g>
<g transform="translate(613 477) rotate(335) scale(31 102)"><ellipse cx="0" cy="0" rx="1" ry="1" fill="rgb(200,186,195)" fill-opacity="0.5019607843137255" /></g>
<g transform="translate(437 485) rotate(162) scale(61 50)"><ellipse cx="0" cy="0" rx="1" ry="1" fill="rgb(255,245,237)" fill-opacity="0.5019607843137255" /></g>
<g transform="translate(600 258) rotate(0) scale(16 122)"><ellipse cx="0" cy="0" rx="1" ry="1" fill="rgb(108,97,120)" fill-opacity="0.5019607843137255" /></g>
<g transform="translate(474 167) rotate(241) scale(30 23)"><ellipse cx="0" cy="0" rx="1" ry="1" fill="rgb(167,152,154)" fill-opacity="0.5019607843137255" /></g>
<g transform="translate(722 40) rotate(146) scale(77 110)"><ellipse cx="0" cy="0" rx="1" ry="1" fill="rgb(27,67,159)" fill-opacity="0.5019607843137255" /></g>
<g transform="translate(72 441) rotate(184) scale(54 327)"><ellipse cx="0" cy="0" rx="1" ry="1" fill="rgb(40,88,168)" fill-opacity="0.5019607843137255" /></g>
<g transform="translate(449 311) rotate(221) scale(9 67)"><ellipse cx="0" cy="0" rx="1" ry="1" fill="rgb(76,73,98)" fill-opacity="0.5019607843137255" /></g>
<g transform="translate(42 0) rotate(303) scale(348 67)"><ellipse cx="0" cy="0" rx="1" ry="1" fill="rgb(19,58,146)" fill-opacity="0.5019607843137255" /></g>
<g transform="translate(400 97) rotate(302) scale(37 10)"><ellipse cx="0" cy="0" rx="1" ry="1" fill="rgb(28,87,217)" fill-opacity="0.5019607843137255" /></g>
<g transform="translate(313 456) rotate(284) scale(104 68)"><ellipse cx="0" cy="0" rx="1" ry="1" fill="rgb(56,114,207)" fill-opacity="0.5019607843137255" /></g>
<g transform="translate(410 181) rotate(317) scale(19 18)"><ellipse cx="0" cy="0" rx="1" ry="1" fill="rgb(107,51,52)" fill-opacity="0.5019607843137255" /></g>
<g transform="translate(408 444) rotate(183) scale(5 116)"><ellipse cx="0" cy="0" rx="1" ry="1" fill="rgb(115,110,140)" fill-opacity="0.5019607843137255" /></g>
<g transform="translate(412 508) rotate(201) scale(34 37)"><ellipse cx="0" cy="0" rx="1" ry="1" fill="rgb(255,245,239)" fill-opacity="0.5019607843137255" /></g>
<g transform="translate(473 247) rotate(208) scale(8 45)"><ellipse cx="0" cy="0" rx="1" ry="1" fill="rgb(222,203,208)" fill-opacity="0.5019607843137255" /></g>
<g transform="translate(531 224) rotate(349) scale(53 37)"><ellipse cx="0" cy="0" rx="1" ry="1" fill="rgb(209,196,206)" fill-opacity="0.5019607843137255" /></g>
<g transform="translate(553 260) rotate(279) scale(18 33)"><ellipse cx="0" cy="0" rx="1" ry="1" fill="rgb(188,162,161)" fill-opacity="0.5019607843137255" /></g>
<g transform="translate(427 298) rotate(305) scale(36 10)"><ellipse cx="0" cy="0" rx="1" ry="1" fill="rgb(224,100,1)" fill-opacity="0.5019607843137255" /></g>
<g transform="translate(582 220) rotate(265) scale(107 14)"><ellipse cx="0" cy="0" rx="1" ry="1" fill="rgb(147,138,154)" fill-opacity="0.5019607843137255" /></g>
<g transform="translate(625 377) rotate(290) scale(22 22)"><ellipse cx="0" cy="0" rx="1" ry="1" fill="rgb(65,99,174)" fill-opacity="0.5019607843137255" /></g>
<g transform="translate(451 212) rotate(168) scale(33 19)"><ellipse cx="0" cy="0" rx="1" ry="1" fill="rgb(47,8,0)" fill-opacity="0.5019607843137255" /></g>
<g transform="translate(492 440) rotate(336) scale(54 113)"><ellipse cx="0" cy="0" rx="1" ry="1" fill="rgb(243,230,233)" fill-opacity="0.5019607843137255" /></g>
<g transform="translate(560 327) rotate(33) scale(30 47)"><ellipse cx="0" cy="0" rx="1" ry="1" fill="rgb(224,207,216)" fill-opacity="0.5019607843137255" /></g>
<g transform="translate(307 137) rotate(345) scale(15 9)"><ellipse cx="0" cy="0" rx="1" ry="1" fill="rgb(206,169,80)" fill-opacity="0.5019607843137255" /></g>
<g transform="translate(250 368) rotate(175) scale(110 269)"><ellipse cx="0" cy="0" rx="1" ry="1" fill="rgb(51,102,195)" fill-opacity="0.5019607843137255" /></g>
<g transform="translate(400 339) rotate(218) scale(6 62)"><ellipse cx="0" cy="0" rx="1" ry="1" fill="rgb(178,40,0)" fill-opacity="0.5019607843137255" /></g>
<g transform="translate(23 483) rotate(317) scale(66 257)"><ellipse cx="0" cy="0" rx="1" ry="1" fill="rgb(40,83,148)" fill-opacity="0.5019607843137255" /></g>
<g transform="translate(485 266) rotate(83) scale(21 31)"><ellipse cx="0" cy="0" rx="1" ry="1" fill="rgb(178,156,156)" fill-opacity="0.5019607843137255" /></g>
<g transform="translate(220 55) rotate(310) scale(223 80)"><ellipse cx="0" cy="0" rx="1" ry="1" fill="rgb(31,77,184)" fill-opacity="0.5019607843137255" /></g>
<g transform="translate(367 377) rotate(198) scale(6 12)"><ellipse cx="0" cy="0" rx="1" ry="1" fill="rgb(250,231,148)" fill-opacity="0.5019607843137255" /></g>
<g transform="translate(530 149) rotate(330) scale(27 18)"><ellipse cx="0" cy="0" rx="1" ry="1" fill="rgb(98,87,104)" fill-opacity="0.5019607843137255" /></g>
<g transform="translate(648 350) rotate(345) scale(35 96)"><ellipse cx="0" cy="0" rx="1" ry="1" fill="rgb(50,103,200)" fill-opacity="0.5019607843137255" /></g>
<g transform="translate(423 260) rotate(132) scale(33 13)"><ellipse cx="0" cy="0" rx="1" ry="1" fill="rgb(29,0,8)" fill-opacity="0.5019607843137255" /></g>
<g transform="translate(399 473) rotate(348) scale(10 60)"><ellipse cx="0" cy="0" rx="1" ry="1" fill="rgb(242,231,234)" fill-opacity="0.5019607843137255" /></g>
<g transform="translate(442 187) rotate(292) scale(12 50)"><ellipse cx="0" cy="0" rx="1" ry="1" fill="rgb(137,75,50)" fill-opacity="0.5019607843137255" /></g>
<g transform="translate(611 190) rotate(173) scale(5 36)"><ellipse cx="0" cy="0" rx="1" ry="1" fill="rgb(50,72,135)" fill-opacity="0.5019607843137255" /></g>
<g transform="translate(375 281) rotate(22) scale(22 68)"><ellipse cx="0" cy="0" rx="1" ry="1" fill="rgb(50,99,194)" fill-opacity="0.5019607843137255" /></g>
<g transform="translate(401 361) rotate(291) scale(26 4)"><ellipse cx="0" cy="0" rx="1" ry="1" fill="rgb(249,255,255)" fill-opacity="0.5019607843137255" /></g>
<g transform="translate(540 419) rotate(171) scale(37 57)"><ellipse cx="0" cy="0" rx="1" ry="1" fill="rgb(220,211,218)" fill-opacity="0.5019607843137255" /></g>
<g transform="translate(415 73) rotate(158) scale(96 29)"><ellipse cx="0" cy="0" rx="1" ry="1" fill="rgb(42,93,206)" fill-opacity="0.5019607843137255" /></g>
<g transform="translate(737 511) rotate(124) scale(10 39)"><ellipse cx="0" cy="0" rx="1" ry="1" fill="rgb(113,72,51)" fill-opacity="0.5019607843137255" /></g>
<g transform="translate(314 82) rotate(198) scale(23 40)"><ellipse cx="0" cy="0" rx="1" ry="1" fill="rgb(42,93,207)" fill-opacity="0.5019607843137255" /></g>
<g transform="translate(651 245) rotate(8) scale(38 134)"><ellipse cx="0" cy="0" rx="1" ry="1" fill="rgb(46,96,195)" fill-opacity="0.5019607843137255" /></g>
<g transform="translate(520 307) rotate(104) scale(24 38)"><ellipse cx="0" cy="0" rx="1" ry="1" fill="rgb(253,238,238)" fill-opacity="0.5019607843137255" /></g>
<g transform="translate(383 44) rotate(300) scale(55 74)"><ellipse cx="0" cy="0" rx="1" ry="1" fill="rgb(41,88,196)" fill-opacity="0.5019607843137255" /></g>
<g transform="translate(467 475) rotate(282) scale(58 57)"><ellipse cx="0" cy="0" rx="1" ry="1" fill="rgb(231,226,225)" fill-opacity="0.5019607843137255" /></g>
<g transform="translate(536 110) rotate(16) scale(43 18)"><ellipse cx="0" cy="0" rx="1" ry="1" fill="rgb(190,185,205)" fill-opacity="0.5019607843137255" /></g>
<g transform="translate(526 256) rotate(58) scale(25 20)"><ellipse cx="0" cy="0" rx="1" ry="1" fill="rgb(214,200,199)" fill-opacity="0.5019607843137255" /></g>
<g transform="translate(646 92) rotate(135) scale(63 248)"><ellipse cx="0" cy="0" rx="1" ry="1" fill="rgb(36,80,179)" fill-opacity="0.5019607843137255" /></g>
<g transform="translate(666 486) rotate(295) scale(26 45)"><ellipse cx="0" cy="0" rx="1" ry="1" fill="rgb(167,160,171)" fill-opacity="0.5019607843137255" /></g>
<g transform="translate(368 140) rotate(71) scale(10 16)"><ellipse cx="0" cy="0" rx="1" ry="1" fill="rgb(175,70,0)" fill-opacity="0.5019607843137255" /></g>
<g transform="translate(411 414) rotate(6) scale(6 56)"><ellipse cx="0" cy="0" rx="1" ry="1" fill="rgb(116,110,135)" fill-opacity="0.5019607843137255" /></g>
<g transform="translate(595 259) rotate(296) scale(21 15)"><ellipse cx="0" cy="0" rx="1" ry="1" fill="rgb(96,88,110)" fill-opacity="0.5019607843137255" /></g>
<g transform="translate(429 326) rotate(311) scale(26 9)"><ellipse cx="0" cy="0" rx="1" ry="1" fill="rgb(80,70,91)" fill-opacity="0.5019607843137255" /></g>
<g transform="translate(443 212) rotate(250) scale(14 9)"><ellipse cx="0" cy="0" rx="1" ry="1" fill="rgb(0,0,0)" fill-opacity="0.5019607843137255" /></g>
<g transform="translate(268 443) rotate(132) scale(80 131)"><ellipse cx="0" cy="0" rx="1" ry="1" fill="rgb(56,105,189)" fill-opacity="0.5019607843137255" /></g>
<g transform="translate(415 363) rotate(188) scale(10 35)"><ellipse cx="0" cy="0" rx="1" ry="1" fill="rgb(100,100,133)" fill-opacity="0.5019607843137255" /></g>
<g transform="translate(605 507) rotate(358) scale(18 42)"><ellipse cx="0" cy="0" rx="1" ry="1" fill="rgb(221,213,215)" fill-opacity="0.5019607843137255" /></g>
<g transform="translate(392 204) rotate(233) scale(27 10)"><ellipse cx="0" cy="0" rx="1" ry="1" fill="rgb(35,95,218)" fill-opacity="0.5019607843137255" /></g>
<g transform="translate(416 244) rotate(133) scale(13 6)"><ellipse cx="0" cy="0" rx="1" ry="1" fill="rgb(30,11,20)" fill-opacity="0.5019607843137255" /></g>
<g transform="translate(255 134) rotate(40) scale(32 139)"><ellipse cx="0" cy="0" rx="1" ry="1" fill="rgb(43,92,197)" fill-opacity="0.5019607843137255" /></g>
<g transform="translate(310 150) rotate(106) scale(5 27)"><ellipse cx="0" cy="0" rx="1" ry="1" fill="rgb(73,115,203)" fill-opacity="0.5019607843137255" /></g>
<g transform="translate(677 322) rotate(206) scale(70 78)"><ellipse cx="0" cy="0" rx="1" ry="1" fill="rgb(48,95,188)" fill-opacity="0.5019607843137255" /></g>
<g transform="translate(465 237) rotate(187) scale(9 11)"><ellipse cx="0" cy="0" rx="1" ry="1" fill="rgb(226,124,91)" fill-opacity="0.5019607843137255" /></g>
<g transform="translate(737 434) rotate(125) scale(57 112)"><ellipse cx="0" cy="0" rx="1" ry="1" fill="rgb(47,94,181)" fill-opacity="0.5019607843137255" /></g>
<g transform="translate(394 177) rotate(360) scale(26 6)"><ellipse cx="0" cy="0" rx="1" ry="1" fill="rgb(76,42,62)" fill-opacity="0.5019607843137255" /></g>
<g transform="translate(169 0) rotate(132) scale(228 57)"><ellipse cx="0" cy="0" rx="1" ry="1" fill="rgb(29,71,164)" fill-opacity="0.5019607843137255" /></g>
<g transform="translate(506 144) rotate(34) scale(16 16)"><ellipse cx="0" cy="0" rx="1" ry="1" fill="rgb(96,59,39)" fill-opacity="0.5019607843137255" /></g>
<g transform="translate(506 215) rotate(249) scale(14 31)"><ellipse cx="0" cy="0" rx="1" ry="1" fill="rgb(220,214,223)" fill-opacity="0.5019607843137255" /></g>
<g transform="translate(390 332) rotate(263) scale(16 16)"><ellipse cx="0" cy="0" rx="1" ry="1" fill="rgb(206,83,18)" fill-opacity="0.5019607843137255" /></g>
<g transform="translate(758 27) rotate(230) scale(158 49)"><ellipse cx="0" cy="0" rx="1" ry="1" fill="rgb(26,66,159)" fill-opacity="0.5019607843137255" /></g>
<g transform="translate(177 486) rotate(309) scale(63 113)"><ellipse cx="0" cy="0" rx="1" ry="1" fill="rgb(49,95,171)" fill-opacity="0.5019607843137255" /></g>
<g transform="translate(400 149) rotate(29) scale(23 4)"><ellipse cx="0" cy="0" rx="1" ry="1" fill="rgb(167,180,201)" fill-opacity="0.5019607843137255" /></g>
<g transform="translate(533 186) rotate(312) scale(19 16)"><ellipse cx="0" cy="0" rx="1" ry="1" fill="rgb(166,160,172)" fill-opacity="0.5019607843137255" /></g>
<g transform="translate(428 427) rotate(233) scale(11 17)"><ellipse cx="0" cy="0" rx="1" ry="1" fill="rgb(244,236,242)" fill-opacity="0.5019607843137255" /></g>
<polygon points="399,416 388,371 407,341" fill="rgb(231,238,255)" fill-opacity="0.5019607843137255"/>
<polygon points="463,145 446,167 414,167" fill="rgb(246,223,217)" fill-opacity="0.5019607843137255"/>
<polygon points="374,356 410,313 389,367" fill="rgb(157,0,0)" fill-opacity="0.5019607843137255"/>
<polygon points="497,285 447,280 529,251" fill="rgb(164,151,156)" fill-opacity="0.5019607843137255"/>
<polygon points="389,134 303,125 322,114" fill="rgb(220,129,24)" fill-opacity="0.5019607843137255"/>
<polygon points="530,215 460,254 491,260" fill="rgb(188,172,179)" fill-opacity="0.5019607843137255"/>
<polygon points="473,191 381,136 463,134" fill="rgb(189,177,187)" fill-opacity="0.5019607843137255"/>
<polygon points="522,150 451,176 525,141" fill="rgb(183,175,192)" fill-opacity="0.5019607843137255"/>
<polygon points="463,254 370,338 458,239" fill="rgb(237,171,127)" fill-opacity="0.5019607843137255"/>
<polygon points="372,330 467,249 359,365" fill="rgb(223,144,54)" fill-opacity="0.5019607843137255"/>
<polygon points="609,270 607,367 593,255" fill="rgb(75,74,109)" fill-opacity="0.5019607843137255"/>
<polygon points="532,279 566,261 573,308" fill="rgb(220,207,212)" fill-opacity="0.5019607843137255"/>
<polygon points="408,235 403,265 408,244" fill="rgb(211,152,92)" fill-opacity="0.5019607843137255"/>
<polygon points="538,223 587,258 595,185" fill="rgb(167,162,179)" fill-opacity="0.5019607843137255"/>
<polygon points="490,395 463,305 427,363" fill="rgb(255,246,246)" fill-opacity="0.5019607843137255"/>
<polygon points="463,167 468,144 511,131" fill="rgb(66,50,56)" fill-opacity="0.5019607843137255"/>
<polygon points="429,272 421,272 394,323" fill="rgb(195,164,200)" fill-opacity="0.5019607843137255"/>
<polygon points="715,511 709,484 662,447" fill="rgb(116,108,130)" fill-opacity="0.5019607843137255"/>
<polygon points="309,114 281,159 313,137" fill="rgb(180,162,130)" fill-opacity="0.5019607843137255"/>
<polygon points="620,415 615,365 596,344" fill="rgb(114,104,127)" fill-opacity="0.5019607843137255"/>
<polygon points="560,148 527,120 612,149" fill="rgb(109,105,131)" fill-opacity="0.5019607843137255"/>
<polygon points="529,174 463,178 484,210" fill="rgb(131,119,129)" fill-opacity="0.5019607843137255"/>
<polygon points="645,435 581,325 601,433" fill="rgb(155,154,182)" fill-opacity="0.5019607843137255"/>
<polygon points="491,287 412,323 445,283" fill="rgb(107,66,50)" fill-opacity="0.5019607843137255"/>
<polygon points="444,256 463,224 445,265" fill="rgb(240,203,169)" fill-opacity="0.5019607843137255"/>
<polygon points="473,254 486,216 462,259" fill="rgb(236,216,215)" fill-opacity="0.5019607843137255"/>
<polygon points="440,511 383,442 377,511" fill="rgb(226,221,225)" fill-opacity="0.5019607843137255"/>
<polygon points="352,138 405,175 439,170" fill="rgb(193,89,13)" fill-opacity="0.5019607843137255"/>
<polygon points="454,152 511,169 472,180" fill="rgb(173,167,182)" fill-opacity="0.5019607843137255"/>
<polygon points="555,145 607,155 598,129" fill="rgb(104,105,140)" fill-opacity="0.5019607843137255"/>
<polygon points="437,318 464,304 410,373" fill="rgb(124,102,116)" fill-opacity="0.5019607843137255"/>
<polygon points="499,128 435,92 508,85" fill="rgb(225,213,219)" fill-opacity="0.5019607843137255"/>
<polygon points="407,203 445,185 349,155" fill="rgb(82,39,48)" fill-opacity="0.5019607843137255"/>
<polygon points="463,151 438,170 446,137" fill="rgb(211,205,217)" fill-opacity="0.5019607843137255"/>
<polygon points="571,286 590,272 601,334" fill="rgb(153,151,177)" fill-opacity="0.5019607843137255"/>
<polygon points="590,386 534,378 565,305" fill="rgb(211,204,216)" fill-opacity="0.5019607843137255"/>
<polygon points="767,458 664,364 702,482" fill="rgb(49,92,177)" fill-opacity="0.5019607843137255"/>
<polygon points="465,258 485,262 442,288" fill="rgb(123,115,130)" fill-opacity="0.5019607843137255"/>
<polygon points="540,266 591,213 551,270" fill="rgb(157,148,158)" fill-opacity="0.5019607843137255"/>
<polygon points="319,114 288,152 299,126" fill="rgb(186,169,144)" fill-opacity="0.5019607843137255"/>
<polygon points="583,139 559,144 576,149" fill="rgb(98,89,109)" fill-opacity="0.5019607843137255"/>
<polygon points="371,456 306,449 393,362" fill="rgb(53,107,207)" fill-opacity="0.5019607843137255"/>
<polygon points="601,291 613,201 579,266" fill="rgb(103,98,122)" fill-opacity="0.5019607843137255"/>
<polygon points="306,142 344,153 309,120" fill="rgb(129,94,31)" fill-opacity="0.5019607843137255"/>
<polygon points="317,129 375,163 382,137" fill="rgb(144,59,0)" fill-opacity="0.5019607843137255"/>
<polygon points="605,228 598,270 581,221" fill="rgb(112,108,133)" fill-opacity="0.5019607843137255"/>
<polygon points="389,338 420,324 392,298" fill="rgb(185,79,23)" fill-opacity="0.5019607843137255"/>
<polygon points="406,492 399,410 384,438" fill="rgb(235,227,233)" fill-opacity="0.5019607843137255"/>
<polygon points="481,142 493,152 515,133" fill="rgb(35,15,5)" fill-opacity="0.5019607843137255"/>
<polygon points="585,290 602,446 576,356" fill="rgb(180,176,198)" fill-opacity="0.5019607843137255"/>
<polygon points="484,104 425,107 429,145" fill="rgb(246,240,246)" fill-opacity="0.5019607843137255"/>
<polygon points="509,144 482,167 509,138" fill="rgb(185,158,122)" fill-opacity="0.5019607843137255"/>
<polygon points="393,317 396,287 446,215" fill="rgb(49,11,15)" fill-opacity="0.5019607843137255"/>
<polygon points="436,200 415,186 402,293" fill="rgb(21,7,18)" fill-opacity="0.5019607843137255"/>
<polygon points="411,212 422,194 453,208" fill="rgb(0,0,0)" fill-opacity="0.5019607843137255"/>
<polygon points="633,404 627,411 683,474" fill="rgb(121,114,137)" fill-opacity="0.5019607843137255"/>
<polygon points="621,391 606,359 604,334" fill="rgb(58,63,106)" fill-opacity="0.5019607843137255"/>
<polygon points="375,344 462,245 428,300" fill="rgb(245,136,31)" fill-opacity="0.5019607843137255"/>
<polygon points="325,112 358,136 383,134" fill="rgb(188,82,17)" fill-opacity="0.5019607843137255"/>
<polygon points="417,197 408,172 468,187" fill="rgb(104,47,46)" fill-opacity="0.5019607843137255"/>
<polygon points="613,399 671,497 678,462" fill="rgb(143,143,167)" fill-opacity="0.5019607843137255"/>
<polygon points="469,301 421,397 521,332" fill="rgb(252,240,240)" fill-opacity="0.5019607843137255"/>
<polygon points="531,88 494,114 566,114" fill="rgb(195,188,204)" fill-opacity="0.5019607843137255"/>
<polygon points="641,511 688,511 675,484" fill="rgb(183,178,191)" fill-opacity="0.5019607843137255"/>
<polygon points="432,208 454,237 425,282" fill="rgb(77,14,32)" fill-opacity="0.5019607843137255"/>
<polygon points="340,107 467,87 602,40" fill="rgb(43,92,199)" fill-opacity="0.5019607843137255"/>
<polygon points="489,172 491,165 421,166" fill="rgb(184,174,185)" fill-opacity="0.5019607843137255"/>
<polygon points="504,139 499,131 496,144" fill="rgb(0,0,0)" fill-opacity="0.5019607843137255"/>
<polygon points="388,311 373,375 361,355" fill="rgb(190,133,60)" fill-opacity="0.5019607843137255"/>
<polygon points="483,198 462,244 456,247" fill="rgb(134,45,30)" fill-opacity="0.5019607843137255"/>
<polygon points="431,334 406,421 432,352" fill="rgb(135,129,155)" fill-opacity="0.5019607843137255"/>
<polygon points="328,157 401,273 389,187" fill="rgb(45,96,204)" fill-opacity="0.5019607843137255"/>
<polygon points="46,280 184,91 172,428" fill="rgb(41,91,181)" fill-opacity="0.5019607843137255"/>
<polygon points="433,270 437,267 438,259" fill="rgb(217,136,159)" fill-opacity="0.5019607843137255"/>
<polygon points="535,156 467,156 524,173" fill="rgb(103,98,119)" fill-opacity="0.5019607843137255"/>
<polygon points="491,181 444,176 494,205" fill="rgb(134,119,127)" fill-opacity="0.5019607843137255"/>
<polygon points="413,472 382,498 381,460" fill="rgb(209,205,215)" fill-opacity="0.5019607843137255"/>
<polygon points="416,6 355,114 290,115" fill="rgb(44,93,197)" fill-opacity="0.5019607843137255"/>
<polygon points="606,222 560,171 595,177" fill="rgb(129,124,141)" fill-opacity="0.5019607843137255"/>
<polygon points="698,511 710,497 719,511" fill="rgb(138,122,124)" fill-opacity="0.5019607843137255"/>
<polygon points="613,275 602,307 603,251" fill="rgb(78,79,115)" fill-opacity="0.5019607843137255"/>
<polygon points="379,146 394,122 430,118" fill="rgb(241,228,229)" fill-opacity="0.5019607843137255"/>
<polygon points="87,0 197,0 153,45" fill="rgb(28,68,163)" fill-opacity="0.5019607843137255"/>
<polygon points="500,256 563,234 539,194" fill="rgb(201,195,206)" fill-opacity="0.5019607843137255"/>
<polygon points="506,119 420,152 483,143" fill="rgb(180,172,188)" fill-opacity="0.5019607843137255"/>
<polygon points="631,472 583,477 573,349" fill="rgb(195,191,205)" fill-opacity="0.5019607843137255"/>
<polygon points="540,155 596,151 595,174" fill="rgb(156,152,169)" fill-opacity="0.5019607843137255"/>
<polygon points="580,190 566,242 502,263" fill="rgb(186,178,187)" fill-opacity="0.5019607843137255"/>
<polygon points="261,22 153,339 291,170" fill="rgb(43,93,194)" fill-opacity="0.5019607843137255"/>
<polygon points="453,166 469,139 467,176" fill="rgb(144,132,144)" fill-opacity="0.5019607843137255"/>
<polygon points="391,148 423,171 409,157" fill="rgb(130,55,22)" fill-opacity="0.5019607843137255"/>
<polygon points="514,133 509,147 514,140" fill="rgb(25,0,0)" fill-opacity="0.5019607843137255"/>
<polygon points="600,287 585,289 602,298" fill="rgb(128,125,151)" fill-opacity="0.5019607843137255"/>
<polygon points="614,272 610,78 728,249" fill="rgb(45,92,189)" fill-opacity="0.5019607843137255"/>
<polygon points="589,92 521,9 473,82" fill="rgb(42,88,193)" fill-opacity="0.5019607843137255"/>
<polygon points="447,288 487,253 513,267" fill="rgb(163,151,159)" fill-opacity="0.5019607843137255"/>
<polygon points="479,215 530,182 480,211" fill="rgb(163,162,183)" fill-opacity="0.5019607843137255"/>
<polygon points="405,364 439,336 423,369" fill="rgb(119,112,133)" fill-opacity="0.5019607843137255"/>
<polygon points="380,319 362,365 409,305" fill="rgb(196,133,72)" fill-opacity="0.5019607843137255"/>
<polygon points="343,388 375,180 401,272" fill="rgb(51,100,196)" fill-opacity="0.5019607843137255"/>
<polygon points="554,271 484,291 495,284" fill="rgb(241,225,223)" fill-opacity="0.5019607843137255"/>
<polygon points="409,328 372,363 380,373" fill="rgb(146,26,10)" fill-opacity="0.5019607843137255"/>
<polygon points="721,0 767,218 552,0" fill="rgb(34,75,171)" fill-opacity="0.5019607843137255"/>
<polygon points="66,0 0,88 0,0" fill="rgb(21,59,145)" fill-opacity="0.5019607843137255"/>
<polygon points="569,139 500,121 580,119" fill="rgb(150,144,164)" fill-opacity="0.5019607843137255"/>
<polygon points="427,97 470,86 398,117" fill="rgb(211,200,214)" fill-opacity="0.5019607843137255"/>
<polygon points="608,301 695,401 608,336" fill="rgb(51,100,193)" fill-opacity="0.5019607843137255"/>
<polygon points="411,156 416,143 385,146" fill="rgb(160,145,156)" fill-opacity="0.5019607843137255"/>
<polygon points="379,374 371,379 375,353" fill="rgb(183,115,33)" fill-opacity="0.5019607843137255"/>
<polygon points="377,180 317,142 357,170" fill="rgb(109,56,0)" fill-opacity="0.5019607843137255"/>
<polygon points="342,129 345,134 366,140" fill="rgb(0,0,0)" fill-opacity="0.5019607843137255"/>
<polygon points="338,293 380,468 209,393" fill="rgb(57,107,199)" fill-opacity="0.5019607843137255"/>
<polygon points="452,290 438,329 418,325" fill="rgb(99,74,80)" fill-opacity="0.5019607843137255"/>
<polygon points="459,181 479,213 450,210" fill="rgb(100,47,34)" fill-opacity="0.5019607843137255"/>
<polygon points="519,140 513,153 524,145" fill="rgb(196,198,227)" fill-opacity="0.5019607843137255"/>
<polygon points="408,511 543,270 555,333" fill="rgb(235,229,233)" fill-opacity="0.5019607843137255"/>
<polygon points="465,230 455,236 463,221" fill="rgb(175,127,151)" fill-opacity="0.5019607843137255"/>
<polygon points="523,109 548,135 509,125" fill="rgb(147,142,165)" fill-opacity="0.5019607843137255"/>
<polygon points="493,205 499,161 526,179" fill="rgb(146,138,152)" fill-opacity="0.5019607843137255"/>
<polygon points="571,348 505,476 577,402" fill="rgb(211,204,212)" fill-opacity="0.5019607843137255"/>
<polygon points="767,193 654,0 767,79" fill="rgb(31,74,169)" fill-opacity="0.5019607843137255"/>
<polygon points="767,511 771,520 706,490" fill="rgb(79,69,89)" fill-opacity="0.5019607843137255"/>
<polygon points="460,309 436,344 450,434" fill="rgb(249,240,241)" fill-opacity="0.5019607843137255"/>
<polygon points="415,285 441,225 410,212" fill="rgb(53,28,55)" fill-opacity="0.5019607843137255"/>
<polygon points="643,184 595,69 594,135" fill="rgb(46,92,191)" fill-opacity="0.5019607843137255"/></svg>