<?xml version="1.0" standalone="no"?>
<svg xmlns="http://www.w3.org/2000/svg" version="1.2" baseProfile="tiny" width="837" height="512">
<rect x="0" y="0" width="836" height="511" fill="rgb(46,63,85)" fill-opacity="1" />
<polygon points="445,141 836,511 0,454" fill="rgb(138,182,240)" fill-opacity="0.5019607843137255"/>
<polygon points="611,147 331,201 351,0" fill="rgb(0,0,0)" fill-opacity="0.5019607843137255"/>
<polygon points="432,263 445,263 419,258" fill="rgb(198,173,138)" fill-opacity="0.5019607843137255"/>
<polygon points="480,301 168,309 436,171" fill="rgb(255,255,237)" fill-opacity="0.5019607843137255"/>
<polygon points="0,0 0,341 287,142" fill="rgb(0,0,0)" fill-opacity="0.5019607843137255"/>
<polygon points="836,321 0,0 836,0" fill="rgb(0,0,0)" fill-opacity="0.5019607843137255"/>
<polygon points="226,278 291,300 278,58" fill="rgb(255,255,255)" fill-opacity="0.5019607843137255"/>
<polygon points="432,393 251,292 391,179" fill="rgb(250,242,233)" fill-opacity="0.5019607843137255"/>
<polygon points="434,336 836,137 613,323" fill="rgb(0,0,0)" fill-opacity="0.5019607843137255"/>
<polygon points="251,69 205,126 307,110" fill="rgb(253,222,190)" fill-opacity="0.5019607843137255"/>
<polygon points="523,246 643,221 544,291" fill="rgb(249,251,251)" fill-opacity="0.5019607843137255"/>
<polygon points="836,0 311,0 288,228" fill="rgb(0,0,0)" fill-opacity="0.5019607843137255"/>
<polygon points="265,95 302,130 228,320" fill="rgb(255,255,239)" fill-opacity="0.5019607843137255"/>
<polygon points="836,509 600,297 836,287" fill="rgb(59,138,231)" fill-opacity="0.5019607843137255"/>
<polygon points="0,511 249,298 0,301" fill="rgb(52,117,200)" fill-opacity="0.5019607843137255"/>
<polygon points="236,0 230,326 0,177" fill="rgb(0,0,0)" fill-opacity="0.5019607843137255"/>
<polygon points="228,261 257,157 277,503" fill="rgb(242,228,207)" fill-opacity="0.5019607843137255"/>
<polygon points="594,235 836,5 84,0" fill="rgb(0,0,0)" fill-opacity="0.5019607843137255"/>
<polygon points="122,288 0,511 836,511" fill="rgb(47,98,169)" fill-opacity="0.5019607843137255"/>
<polygon points="0,313 323,0 0,0" fill="rgb(0,0,0)" fill-opacity="0.5019607843137255"/>
<polygon points="351,3 269,276 428,114" fill="rgb(0,0,0)" fill-opacity="0.5019607843137255"/>
<polygon points="602,275 415,313 587,303" fill="rgb(12,11,5)" fill-opacity="0.5019607843137255"/>
<polygon points="387,380 291,311 350,312" fill="rgb(226,244,255)" fill-opacity="0.5019607843137255"/>
<polygon points="607,253 386,327 456,167" fill="rgb(177,178,178)" fill-opacity="0.5019607843137255"/>
<polygon points="836,0 836,296 63,0" fill="rgb(0,0,0)" fill-opacity="0.5019607843137255"/>
<polygon points="257,276 290,266 268,196" fill="rgb(176,164,148)" fill-opacity="0.5019607843137255"/>
<polygon points="615,286 198,511 836,511" fill="rgb(39,92,160)" fill-opacity="0.5019607843137255"/>
<polygon points="836,145 257,0 572,235" fill="rgb(0,0,0)" fill-opacity="0.5019607843137255"/>
<polygon points="273,76 272,139 224,85" fill="rgb(211,213,215)" fill-opacity="0.5019607843137255"/>
<polygon points="353,198 278,261 416,178" fill="rgb(186,190,196)" fill-opacity="0.5019607843137255"/>
<polygon points="836,296 728,290 836,270" fill="rgb(78,97,83)" fill-opacity="0.5019607843137255"/>
<polygon points="288,99 516,172 385,180" fill="rgb(0,0,0)" fill-opacity="0.5019607843137255"/>
<polygon points="232,273 163,0 7,306" fill="rgb(0,0,0)" fill-opacity="0.5019607843137255"/>
<polygon points="234,468 281,285 290,483" fill="rgb(190,166,130)" fill-opacity="0.5019607843137255"/>
<polygon points="505,276 643,217 599,250" fill="rgb(217,228,242)" fill-opacity="0.5019607843137255"/>
<polygon points="293,490 301,382 256,288" fill="rgb(104,97,86)" fill-opacity="0.5019607843137255"/>
<polygon points="234,465 199,404 241,430" fill="rgb(103,37,0)" fill-opacity="0.5019607843137255"/>
<polygon points="256,286 230,294 269,441" fill="rgb(214,206,191)" fill-opacity="0.5019607843137255"/>
<polygon points="246,74 302,120 285,83" fill="rgb(138,154,162)" fill-opacity="0.5019607843137255"/>
<polygon points="661,275 583,295 686,301" fill="rgb(72,92,63)" fill-opacity="0.5019607843137255"/>
<polygon points="430,173 590,261 540,210" fill="rgb(193,213,237)" fill-opacity="0.5019607843137255"/>
<polygon points="654,291 836,263 591,0" fill="rgb(0,0,0)" fill-opacity="0.5019607843137255"/>
<polygon points="236,115 190,136 226,104" fill="rgb(255,125,31)" fill-opacity="0.5019607843137255"/>
<polygon points="467,201 511,265 417,269" fill="rgb(110,117,124)" fill-opacity="0.5019607843137255"/>
<polygon points="304,241 340,218 273,273" fill="rgb(94,99,109)" fill-opacity="0.5019607843137255"/>
<polygon points="310,239 431,220 452,177" fill="rgb(242,233,226)" fill-opacity="0.5019607843137255"/>
<polygon points="297,47 0,0 0,219" fill="rgb(0,0,0)" fill-opacity="0.5019607843137255"/>
<polygon points="356,268 431,274 413,214" fill="rgb(182,174,169)" fill-opacity="0.5019607843137255"/>
<polygon points="335,301 592,311 516,357" fill="rgb(79,93,109)" fill-opacity="0.5019607843137255"/>
<polygon points="244,93 230,107 222,94" fill="rgb(0,0,0)" fill-opacity="0.5019607843137255"/>
<polygon points="302,126 223,91 263,75" fill="rgb(168,167,164)" fill-opacity="0.5019607843137255"/>
<polygon points="700,280 836,268 705,304" fill="rgb(49,54,30)" fill-opacity="0.5019607843137255"/>
<polygon points="240,440 264,427 198,411" fill="rgb(44,56,73)" fill-opacity="0.5019607843137255"/>
<polygon points="382,310 480,323 380,382" fill="rgb(131,156,185)" fill-opacity="0.5019607843137255"/>
<polygon points="544,311 602,325 565,327" fill="rgb(107,140,179)" fill-opacity="0.5019607843137255"/>
<polygon points="296,171 278,101 280,229" fill="rgb(179,166,150)" fill-opacity="0.5019607843137255"/>
<polygon points="572,235 472,163 836,165" fill="rgb(0,0,0)" fill-opacity="0.5019607843137255"/>
<polygon points="559,311 610,323 587,255" fill="rgb(31,39,42)" fill-opacity="0.5019607843137255"/>
<polygon points="836,0 836,265 42,0" fill="rgb(0,0,0)" fill-opacity="0.5019607843137255"/>
<polygon points="282,255 301,115 389,169" fill="rgb(0,0,0)" fill-opacity="0.5019607843137255"/>
<polygon points="429,304 562,301 512,355" fill="rgb(42,64,92)" fill-opacity="0.5019607843137255"/>
<polygon points="570,283 446,303 553,217" fill="rgb(136,156,176)" fill-opacity="0.5019607843137255"/>
<polygon points="0,511 731,511 489,437" fill="rgb(60,102,160)" fill-opacity="0.5019607843137255"/>
<polygon points="261,115 300,121 289,86" fill="rgb(128,137,141)" fill-opacity="0.5019607843137255"/>
<polygon points="196,273 215,511 0,457" fill="rgb(54,96,151)" fill-opacity="0.5019607843137255"/>
<polygon points="231,314 95,289 231,267" fill="rgb(75,67,43)" fill-opacity="0.5019607843137255"/>
<polygon points="0,306 0,286 145,300" fill="rgb(66,73,58)" fill-opacity="0.5019607843137255"/>
<polygon points="451,175 386,185 515,207" fill="rgb(219,220,222)" fill-opacity="0.5019607843137255"/>
<polygon points="264,197 297,154 287,207" fill="rgb(179,170,159)" fill-opacity="0.5019607843137255"/>
<polygon points="431,269 377,304 458,298" fill="rgb(233,232,232)" fill-opacity="0.5019607843137255"/>
<polygon points="257,288 309,320 252,348" fill="rgb(112,126,143)" fill-opacity="0.5019607843137255"/>
<polygon points="567,286 609,245 544,279" fill="rgb(89,107,123)" fill-opacity="0.5019607843137255"/>
<polygon points="330,301 230,279 336,252" fill="rgb(254,252,252)" fill-opacity="0.5019607843137255"/>
<polygon points="666,201 834,259 565,285" fill="rgb(0,0,0)" fill-opacity="0.5019607843137255"/>
<polygon points="250,287 421,290 366,302" fill="rgb(254,252,251)" fill-opacity="0.5019607843137255"/>
<polygon points="685,288 559,288 671,263" fill="rgb(46,51,32)" fill-opacity="0.5019607843137255"/>
<polygon points="279,436 257,482 238,439" fill="rgb(216,211,203)" fill-opacity="0.5019607843137255"/>
<polygon points="1,504 0,297 308,511" fill="rgb(53,98,158)" fill-opacity="0.5019607843137255"/>
<polygon points="475,232 428,263 455,259" fill="rgb(94,101,109)" fill-opacity="0.5019607843137255"/>
<polygon points="399,174 265,69 492,179" fill="rgb(0,0,0)" fill-opacity="0.5019607843137255"/>
<polygon points="700,381 514,490 836,511" fill="rgb(38,87,148)" fill-opacity="0.5019607843137255"/>
<polygon points="258,292 246,200 230,260" fill="rgb(255,255,255)" fill-opacity="0.5019607843137255"/>
<polygon points="229,258 259,121 0,273" fill="rgb(0,0,0)" fill-opacity="0.5019607843137255"/>
<polygon points="267,481 283,416 252,287" fill="rgb(169,166,160)" fill-opacity="0.5019607843137255"/>
<polygon points="311,233 365,194 396,181" fill="rgb(197,207,218)" fill-opacity="0.5019607843137255"/>
<polygon points="379,302 424,382 473,380" fill="rgb(145,164,187)" fill-opacity="0.5019607843137255"/>
<polygon points="429,328 263,292 407,309" fill="rgb(172,168,159)" fill-opacity="0.5019607843137255"/>
<polygon points="240,220 112,143 262,122" fill="rgb(0,0,0)" fill-opacity="0.5019607843137255"/>
<polygon points="494,295 497,306 517,293" fill="rgb(3,2,3)" fill-opacity="0.5019607843137255"/>
<polygon points="258,505 550,433 351,356" fill="rgb(63,107,166)" fill-opacity="0.5019607843137255"/>
<polygon points="613,231 639,211 493,170" fill="rgb(0,0,0)" fill-opacity="0.5019607843137255"/>
<polygon points="0,413 0,511 175,440" fill="rgb(46,88,143)" fill-opacity="0.5019607843137255"/>
<polygon points="279,301 387,384 298,398" fill="rgb(67,118,187)" fill-opacity="0.5019607843137255"/>
<polygon points="466,209 380,187 448,176" fill="rgb(181,189,200)" fill-opacity="0.5019607843137255"/>
<polygon points="274,436 0,320 179,301" fill="rgb(65,112,173)" fill-opacity="0.5019607843137255"/>
<polygon points="435,363 447,383 370,364" fill="rgb(159,185,217)" fill-opacity="0.5019607843137255"/>
<polygon points="230,434 222,445 244,442" fill="rgb(219,136,79)" fill-opacity="0.5019607843137255"/>
<polygon points="591,322 589,282 630,329" fill="rgb(51,67,81)" fill-opacity="0.5019607843137255"/>
<polygon points="658,441 836,303 626,308" fill="rgb(60,110,175)" fill-opacity="0.5019607843137255"/>
<polygon points="230,271 247,288 236,228" fill="rgb(255,255,255)" fill-opacity="0.5019607843137255"/>
<polygon points="465,244 464,275 588,242" fill="rgb(112,129,149)" fill-opacity="0.5019607843137255"/>
<polygon points="288,207 283,251 385,175" fill="rgb(0,0,0)" fill-opacity="0.5019607843137255"/>
<polygon points="163,511 209,425 224,432" fill="rgb(60,98,155)" fill-opacity="0.5019607843137255"/>
<polygon points="408,244 406,230 368,267" fill="rgb(146,147,147)" fill-opacity="0.5019607843137255"/>
<polygon points="266,72 296,157 296,97" fill="rgb(119,124,124)" fill-opacity="0.5019607843137255"/>
<polygon points="540,211 512,243 555,223" fill="rgb(143,169,200)" fill-opacity="0.5019607843137255"/>
<polygon points="151,314 236,325 218,305" fill="rgb(87,118,150)" fill-opacity="0.5019607843137255"/>
<polygon points="292,97 297,149 265,262" fill="rgb(141,136,129)" fill-opacity="0.5019607843137255"/>
<polygon points="237,501 240,453 201,468" fill="rgb(66,104,158)" fill-opacity="0.5019607843137255"/>
<polygon points="0,282 230,262 84,303" fill="rgb(34,30,19)" fill-opacity="0.5019607843137255"/>
<polygon points="229,455 224,434 216,445" fill="rgb(35,34,38)" fill-opacity="0.5019607843137255"/>
<polygon points="277,292 239,344 233,283" fill="rgb(180,189,196)" fill-opacity="0.5019607843137255"/>
<polygon points="232,267 231,302 269,428" fill="rgb(205,210,207)" fill-opacity="0.5019607843137255"/>
<polygon points="311,236 431,180 368,192" fill="rgb(157,167,181)" fill-opacity="0.5019607843137255"/>
<polygon points="257,122 0,271 229,118" fill="rgb(0,0,0)" fill-opacity="0.5019607843137255"/>
<polygon points="333,214 351,203 322,225" fill="rgb(207,215,218)" fill-opacity="0.5019607843137255"/>
<polygon points="553,254 461,266 509,248" fill="rgb(98,113,128)" fill-opacity="0.5019607843137255"/>
<polygon points="585,290 742,313 713,286" fill="rgb(65,98,109)" fill-opacity="0.5019607843137255"/>
<polygon points="147,290 216,325 182,347" fill="rgb(70,109,160)" fill-opacity="0.5019607843137255"/>
<polygon points="274,430 238,432 225,449" fill="rgb(146,124,101)" fill-opacity="0.5019607843137255"/>
<polygon points="521,357 449,375 426,303" fill="rgb(92,110,136)" fill-opacity="0.5019607843137255"/>
<polygon points="782,286 836,294 719,352" fill="rgb(56,107,166)" fill-opacity="0.5019607843137255"/>
<polygon points="398,375 398,316 320,310" fill="rgb(166,187,208)" fill-opacity="0.5019607843137255"/>
<polygon points="422,244 425,187 384,199" fill="rgb(224,220,215)" fill-opacity="0.5019607843137255"/>
<polygon points="201,282 168,303 234,310" fill="rgb(86,84,70)" fill-opacity="0.5019607843137255"/>
<polygon points="537,279 628,233 488,272" fill="rgb(197,205,214)" fill-opacity="0.5019607843137255"/>
<polygon points="580,263 552,267 568,253" fill="rgb(238,234,230)" fill-opacity="0.5019607843137255"/>
<polygon points="242,224 267,96 273,198" fill="rgb(250,243,237)" fill-opacity="0.5019607843137255"/>
<polygon points="275,273 329,227 422,305" fill="rgb(229,226,223)" fill-opacity="0.5019607843137255"/>
<polygon points="284,362 286,469 304,434" fill="rgb(91,92,89)" fill-opacity="0.5019607843137255"/>
<polygon points="224,431 235,439 230,455" fill="rgb(221,128,78)" fill-opacity="0.5019607843137255"/>
<polygon points="469,252 502,194 582,243" fill="rgb(141,162,189)" fill-opacity="0.5019607843137255"/>
<polygon points="0,272 0,0 231,269" fill="rgb(0,0,0)" fill-opacity="0.5019607843137255"/>
<polygon points="239,453 212,438 255,472" fill="rgb(62,61,58)" fill-opacity="0.5019607843137255"/>
<polygon points="497,440 353,386 544,375" fill="rgb(65,113,177)" fill-opacity="0.5019607843137255"/>
<polygon points="1,76 258,147 231,246" fill="rgb(0,0,0)" fill-opacity="0.5019607843137255"/>
<polygon points="262,476 263,393 277,465" fill="rgb(187,190,188)" fill-opacity="0.5019607843137255"/>
<polygon points="327,334 288,306 316,306" fill="rgb(242,250,255)" fill-opacity="0.5019607843137255"/>
<polygon points="466,304 394,306 440,309" fill="rgb(75,61,42)" fill-opacity="0.5019607843137255"/>
<polygon points="573,279 607,247 520,293" fill="rgb(106,124,140)" fill-opacity="0.5019607843137255"/>
<polygon points="338,194 431,176 733,0" fill="rgb(0,0,0)" fill-opacity="0.5019607843137255"/>
<polygon points="349,333 322,334 375,367" fill="rgb(243,251,255)" fill-opacity="0.5019607843137255"/>
<polygon points="608,231 595,249 637,221" fill="rgb(205,210,216)" fill-opacity="0.5019607843137255"/>
<polygon points="445,277 558,271 540,289" fill="rgb(146,161,177)" fill-opacity="0.5019607843137255"/>
<polygon points="286,423 258,347 262,296" fill="rgb(134,130,124)" fill-opacity="0.5019607843137255"/>
<polygon points="319,298 334,312 350,301" fill="rgb(159,156,151)" fill-opacity="0.5019607843137255"/>
<polygon points="234,288 379,324 347,307" fill="rgb(194,195,192)" fill-opacity="0.5019607843137255"/>
<polygon points="562,321 504,441 734,346" fill="rgb(60,110,175)" fill-opacity="0.5019607843137255"/>
<polygon points="471,201 495,233 458,255" fill="rgb(116,132,150)" fill-opacity="0.5019607843137255"/>
<polygon points="459,354 435,383 477,374" fill="rgb(121,143,175)" fill-opacity="0.5019607843137255"/>
<polygon points="324,354 466,412 384,368" fill="rgb(70,120,187)" fill-opacity="0.5019607843137255"/>
<polygon points="289,89 294,142 300,114" fill="rgb(136,151,157)" fill-opacity="0.5019607843137255"/>
<polygon points="674,210 591,255 726,285" fill="rgb(4,2,0)" fill-opacity="0.5019607843137255"/>
<polygon points="264,282 282,257 283,216" fill="rgb(181,180,178)" fill-opacity="0.5019607843137255"/>
<polygon points="205,326 0,430 0,303" fill="rgb(58,104,163)" fill-opacity="0.5019607843137255"/>
<polygon points="386,201 381,245 291,261" fill="rgb(233,231,231)" fill-opacity="0.5019607843137255"/>
<polygon points="445,297 487,302 472,268" fill="rgb(138,165,199)" fill-opacity="0.5019607843137255"/>
<polygon points="458,316 429,306 421,361" fill="rgb(122,135,150)" fill-opacity="0.5019607843137255"/>
<polygon points="10,290 0,0 323,0" fill="rgb(0,0,0)" fill-opacity="0.5019607843137255"/>
<polygon points="422,255 470,242 451,196" fill="rgb(154,153,152)" fill-opacity="0.5019607843137255"/>
<polygon points="672,511 836,511 836,395" fill="rgb(40,86,146)" fill-opacity="0.5019607843137255"/>
<polygon points="290,259 265,275 258,223" fill="rgb(149,147,144)" fill-opacity="0.5019607843137255"/>
<polygon points="258,511 771,485 308,428" fill="rgb(57,98,155)" fill-opacity="0.5019607843137255"/>
<polygon points="299,106 395,181 303,220" fill="rgb(0,0,0)" fill-opacity="0.5019607843137255"/>
<polygon points="283,121 258,75 232,120" fill="rgb(203,201,198)" fill-opacity="0.5019607843137255"/>
<polygon points="491,184 448,176 423,188" fill="rgb(207,213,218)" fill-opacity="0.5019607843137255"/>
<polygon points="555,336 462,327 494,367" fill="rgb(57,88,130)" fill-opacity="0.5019607843137255"/>
<polygon points="433,170 836,262 836,0" fill="rgb(0,0,0)" fill-opacity="0.5019607843137255"/>
<polygon points="415,272 434,305 457,269" fill="rgb(198,202,204)" fill-opacity="0.5019607843137255"/>
<polygon points="253,268 268,171 279,189" fill="rgb(214,198,181)" fill-opacity="0.5019607843137255"/>
<polygon points="243,306 255,292 262,399" fill="rgb(174,175,172)" fill-opacity="0.5019607843137255"/>
<polygon points="33,307 229,316 129,294" fill="rgb(67,102,136)" fill-opacity="0.5019607843137255"/>
<polygon points="571,235 579,253 633,225" fill="rgb(177,193,214)" fill-opacity="0.5019607843137255"/>
<polygon points="766,295 735,286 723,302" fill="rgb(49,87,111)" fill-opacity="0.5019607843137255"/>
<polygon points="834,378 516,502 587,391" fill="rgb(52,100,161)" fill-opacity="0.5019607843137255"/>
<polygon points="539,210 604,229 565,231" fill="rgb(0,0,0)" fill-opacity="0.5019607843137255"/>
<polygon points="577,247 534,264 552,221" fill="rgb(135,157,184)" fill-opacity="0.5019607843137255"/>
<polygon points="550,318 469,324 539,308" fill="rgb(64,97,137)" fill-opacity="0.5019607843137255"/>
<polygon points="450,240 470,248 438,263" fill="rgb(97,106,115)" fill-opacity="0.5019607843137255"/>
<polygon points="235,112 198,135 207,121" fill="rgb(238,109,49)" fill-opacity="0.5019607843137255"/>
<polygon points="235,284 230,269 146,261" fill="rgb(29,30,28)" fill-opacity="0.5019607843137255"/>
<polygon points="638,218 623,234 635,227" fill="rgb(224,219,209)" fill-opacity="0.5019607843137255"/>
<polygon points="229,259 166,276 226,295" fill="rgb(36,36,34)" fill-opacity="0.5019607843137255"/>
<polygon points="319,313 352,340 373,320" fill="rgb(177,195,214)" fill-opacity="0.5019607843137255"/>
<polygon points="287,151 293,163 298,132" fill="rgb(107,105,103)" fill-opacity="0.5019607843137255"/>
<polygon points="222,104 184,0 178,153" fill="rgb(0,0,0)" fill-opacity="0.5019607843137255"/>
<polygon points="280,114 274,76 297,106" fill="rgb(111,121,125)" fill-opacity="0.5019607843137255"/>
<polygon points="277,102 254,104 251,87" fill="rgb(225,223,218)" fill-opacity="0.5019607843137255"/>
<polygon points="447,360 402,330 489,346" fill="rgb(103,120,145)" fill-opacity="0.5019607843137255"/>
<polygon points="451,256 481,257 493,240" fill="rgb(169,169,166)" fill-opacity="0.5019607843137255"/>
<polygon points="293,306 253,316 256,301" fill="rgb(129,142,160)" fill-opacity="0.5019607843137255"/>
<polygon points="398,370 300,307 345,352" fill="rgb(221,233,250)" fill-opacity="0.5019607843137255"/>
<polygon points="608,244 555,267 639,221" fill="rgb(218,218,218)" fill-opacity="0.5019607843137255"/>
<polygon points="150,291 145,278 77,302" fill="rgb(49,55,50)" fill-opacity="0.5019607843137255"/>
<polygon points="570,327 529,315 547,312" fill="rgb(64,93,127)" fill-opacity="0.5019607843137255"/>
<polygon points="651,308 589,287 601,304" fill="rgb(56,97,119)" fill-opacity="0.5019607843137255"/>
<polygon points="279,99 264,126 237,106" fill="rgb(186,187,187)" fill-opacity="0.5019607843137255"/>
<polygon points="205,414 238,440 234,431" fill="rgb(26,8,0)" fill-opacity="0.5019607843137255"/>
<polygon points="247,359 249,431 260,411" fill="rgb(47,105,185)" fill-opacity="0.5019607843137255"/>
<polygon points="757,312 667,320 683,288" fill="rgb(59,104,154)" fill-opacity="0.5019607843137255"/>
<polygon points="524,318 495,327 541,327" fill="rgb(50,47,37)" fill-opacity="0.5019607843137255"/>
<polygon points="625,225 627,214 592,232" fill="rgb(11,7,2)" fill-opacity="0.5019607843137255"/>
<polygon points="645,336 610,324 614,313" fill="rgb(70,80,94)" fill-opacity="0.5019607843137255"/>
<polygon points="170,291 198,310 199,330" fill="rgb(90,106,120)" fill-opacity="0.5019607843137255"/>
<polygon points="497,261 495,238 563,251" fill="rgb(114,131,148)" fill-opacity="0.5019607843137255"/>
<polygon points="265,111 254,104 261,86" fill="rgb(219,219,216)" fill-opacity="0.5019607843137255"/>
<polygon points="273,283 255,278 240,219" fill="rgb(224,222,220)" fill-opacity="0.5019607843137255"/>
<polygon points="240,458 226,454 237,444" fill="rgb(41,47,51)" fill-opacity="0.5019607843137255"/>
<polygon points="284,304 370,378 340,347" fill="rgb(87,136,200)" fill-opacity="0.5019607843137255"/>
<polygon points="261,350 293,367 272,300" fill="rgb(119,117,116)" fill-opacity="0.5019607843137255"/>
<polygon points="529,327 566,323 533,339" fill="rgb(49,80,118)" fill-opacity="0.5019607843137255"/>
<polygon points="204,31 246,68 220,97" fill="rgb(0,0,0)" fill-opacity="0.5019607843137255"/>
<polygon points="288,269 232,283 350,299" fill="rgb(247,248,249)" fill-opacity="0.5019607843137255"/>
<polygon points="525,427 848,300 809,375" fill="rgb(55,105,168)" fill-opacity="0.5019607843137255"/>
<polygon points="453,215 393,220 382,244" fill="rgb(197,195,193)" fill-opacity="0.5019607843137255"/>
<polygon points="248,274 280,268 268,281" fill="rgb(212,211,207)" fill-opacity="0.5019607843137255"/>
<polygon points="294,373 284,468 276,343" fill="rgb(111,112,112)" fill-opacity="0.5019607843137255"/>
<polygon points="836,280 836,288 766,287" fill="rgb(60,68,50)" fill-opacity="0.5019607843137255"/>
<polygon points="585,438 337,430 586,329" fill="rgb(62,108,169)" fill-opacity="0.5019607843137255"/>
<polygon points="411,227 404,283 446,200" fill="rgb(195,191,189)" fill-opacity="0.5019607843137255"/>
<polygon points="370,343 384,361 315,320" fill="rgb(202,218,235)" fill-opacity="0.5019607843137255"/>
<polygon points="464,200 433,177 498,191" fill="rgb(212,214,213)" fill-opacity="0.5019607843137255"/>
<polygon points="262,432 235,428 243,434" fill="rgb(96,83,69)" fill-opacity="0.5019607843137255"/>
<polygon points="268,461 277,401 282,457" fill="rgb(151,149,143)" fill-opacity="0.5019607843137255"/>
<polygon points="0,269 0,304 32,292" fill="rgb(40,38,27)" fill-opacity="0.5019607843137255"/>
<polygon points="447,185 417,202 445,196" fill="rgb(170,177,185)" fill-opacity="0.5019607843137255"/>
<polygon points="473,317 441,307 475,362" fill="rgb(75,99,132)" fill-opacity="0.5019607843137255"/>
<polygon points="234,250 257,225 250,186" fill="rgb(245,244,241)" fill-opacity="0.5019607843137255"/>
<polygon points="490,177 294,95 318,169" fill="rgb(0,0,0)" fill-opacity="0.5019607843137255"/>
<polygon points="257,401 234,317 215,315" fill="rgb(74,122,187)" fill-opacity="0.5019607843137255"/>
<polygon points="653,276 650,300 686,288" fill="rgb(63,75,57)" fill-opacity="0.5019607843137255"/>
<polygon points="30,314 0,307 0,300" fill="rgb(57,83,81)" fill-opacity="0.5019607843137255"/>
<polygon points="615,240 598,257 589,255" fill="rgb(119,134,148)" fill-opacity="0.5019607843137255"/>
<polygon points="440,224 442,248 416,249" fill="rgb(174,171,167)" fill-opacity="0.5019607843137255"/>
<polygon points="264,209 292,179 281,240" fill="rgb(181,171,158)" fill-opacity="0.5019607843137255"/>
<polygon points="601,258 545,299 671,263" fill="rgb(16,16,8)" fill-opacity="0.5019607843137255"/>
<polygon points="310,240 310,233 376,197" fill="rgb(137,146,157)" fill-opacity="0.5019607843137255"/>
<polygon points="569,321 501,338 470,335" fill="rgb(50,71,94)" fill-opacity="0.5019607843137255"/>
<polygon points="735,286 778,279 766,297" fill="rgb(57,72,68)" fill-opacity="0.5019607843137255"/>
<polygon points="265,435 250,359 270,435" fill="rgb(188,194,194)" fill-opacity="0.5019607843137255"/>
<polygon points="562,260 562,236 613,229" fill="rgb(162,181,205)" fill-opacity="0.5019607843137255"/>
<polygon points="274,104 235,103 242,120" fill="rgb(183,184,185)" fill-opacity="0.5019607843137255"/>
<polygon points="542,255 463,199 446,218" fill="rgb(131,147,167)" fill-opacity="0.5019607843137255"/>
<polygon points="213,84 295,55 255,74" fill="rgb(0,0,0)" fill-opacity="0.5019607843137255"/>
<polygon points="307,300 254,301 283,292" fill="rgb(194,198,201)" fill-opacity="0.5019607843137255"/>
<polygon points="222,311 103,305 241,434" fill="rgb(63,108,167)" fill-opacity="0.5019607843137255"/>
<polygon points="242,429 263,423 108,354" fill="rgb(56,100,159)" fill-opacity="0.5019607843137255"/>
<polygon points="284,130 249,198 261,125" fill="rgb(239,234,228)" fill-opacity="0.5019607843137255"/>
<polygon points="643,272 836,272 727,287" fill="rgb(29,28,19)" fill-opacity="0.5019607843137255"/>
<polygon points="288,350 278,347 281,313" fill="rgb(116,120,128)" fill-opacity="0.5019607843137255"/>
<polygon points="70,314 91,315 82,298" fill="rgb(63,96,106)" fill-opacity="0.5019607843137255"/>
<polygon points="836,259 795,268 836,281" fill="rgb(36,36,19)" fill-opacity="0.5019607843137255"/>
<polygon points="371,336 418,367 393,373" fill="rgb(140,164,193)" fill-opacity="0.5019607843137255"/>
<polygon points="269,429 264,474 245,467" fill="rgb(198,199,197)" fill-opacity="0.5019607843137255"/>
<polygon points="259,439 274,473 246,470" fill="rgb(189,192,189)" fill-opacity="0.5019607843137255"/>
<polygon points="233,75 333,0 301,76" fill="rgb(0,0,0)" fill-opacity="0.5019607843137255"/>
<polygon points="228,0 444,174 510,184" fill="rgb(0,0,0)" fill-opacity="0.5019607843137255"/>
<polygon points="476,242 471,211 451,221" fill="rgb(113,126,141)" fill-opacity="0.5019607843137255"/>
<polygon points="428,265 443,264 452,229" fill="rgb(135,137,138)" fill-opacity="0.5019607843137255"/>
<polygon points="456,303 468,317 511,302" fill="rgb(38,51,65)" fill-opacity="0.5019607843137255"/>
<polygon points="411,350 384,341 397,357" fill="rgb(176,196,220)" fill-opacity="0.5019607843137255"/>
<polygon points="702,297 710,286 737,299" fill="rgb(71,85,59)" fill-opacity="0.5019607843137255"/>
<polygon points="283,325 388,382 307,325" fill="rgb(74,124,194)" fill-opacity="0.5019607843137255"/>
<polygon points="395,335 424,317 436,368" fill="rgb(130,153,180)" fill-opacity="0.5019607843137255"/>
<polygon points="390,304 357,304 437,312" fill="rgb(120,111,99)" fill-opacity="0.5019607843137255"/>
<polygon points="406,236 411,245 388,251" fill="rgb(152,151,151)" fill-opacity="0.5019607843137255"/>
<polygon points="532,256 494,267 534,283" fill="rgb(160,176,197)" fill-opacity="0.5019607843137255"/>
<polygon points="236,324 232,268 245,336" fill="rgb(204,211,215)" fill-opacity="0.5019607843137255"/>
<polygon points="609,194 836,173 737,279" fill="rgb(0,0,0)" fill-opacity="0.5019607843137255"/>
<polygon points="246,92 229,105 225,96" fill="rgb(5,0,0)" fill-opacity="0.5019607843137255"/>
<polygon points="196,321 194,307 234,311" fill="rgb(79,100,114)" fill-opacity="0.5019607843137255"/>
<polygon points="345,0 267,69 343,134" fill="rgb(0,0,0)" fill-opacity="0.5019607843137255"/>
<polygon points="199,339 248,358 229,312" fill="rgb(73,118,178)" fill-opacity="0.5019607843137255"/>
<polygon points="184,274 228,293 168,294" fill="rgb(64,63,55)" fill-opacity="0.5019607843137255"/>
<polygon points="229,266 0,255 243,118" fill="rgb(0,0,0)" fill-opacity="0.5019607843137255"/>
<polygon points="389,284 372,250 317,280" fill="rgb(209,207,204)" fill-opacity="0.5019607843137255"/>
<polygon points="562,285 566,265 517,292" fill="rgb(114,130,146)" fill-opacity="0.5019607843137255"/>
<polygon points="416,317 457,310 405,305" fill="rgb(120,115,106)" fill-opacity="0.5019607843137255"/>
<polygon points="275,128 284,121 284,166" fill="rgb(191,186,179)" fill-opacity="0.5019607843137255"/>
<polygon points="784,293 702,363 836,315" fill="rgb(55,106,170)" fill-opacity="0.5019607843137255"/>
<polygon points="0,247 351,0 0,0" fill="rgb(0,0,0)" fill-opacity="0.5019607843137255"/>
<polygon points="176,149 211,118 221,100" fill="rgb(0,0,0)" fill-opacity="0.5019607843137255"/>
<polygon points="184,323 178,324 217,328" fill="rgb(81,105,130)" fill-opacity="0.5019607843137255"/>
<polygon points="642,302 623,306 626,292" fill="rgb(66,103,105)" fill-opacity="0.5019607843137255"/>
<polygon points="364,217 354,201 371,191" fill="rgb(181,188,198)" fill-opacity="0.5019607843137255"/>
<polygon points="463,265 462,302 493,297" fill="rgb(139,163,190)" fill-opacity="0.5019607843137255"/>
<polygon points="549,300 568,316 599,299" fill="rgb(33,47,65)" fill-opacity="0.5019607843137255"/>
<polygon points="470,209 498,201 494,231" fill="rgb(128,149,174)" fill-opacity="0.5019607843137255"/>
<polygon points="244,78 247,94 231,84" fill="rgb(166,167,168)" fill-opacity="0.5019607843137255"/>
<polygon points="306,480 221,469 249,510" fill="rgb(63,102,158)" fill-opacity="0.5019607843137255"/>
<polygon points="467,379 535,349 517,339" fill="rgb(73,105,147)" fill-opacity="0.5019607843137255"/>
<polygon points="650,341 621,299 608,308" fill="rgb(60,109,162)" fill-opacity="0.5019607843137255"/>
<polygon points="236,456 232,461 255,475" fill="rgb(186,168,146)" fill-opacity="0.5019607843137255"/>
<polygon points="431,172 284,83 376,188" fill="rgb(0,0,0)" fill-opacity="0.5019607843137255"/>
<polygon points="562,248 519,202 579,242" fill="rgb(138,165,198)" fill-opacity="0.5019607843137255"/>
<polygon points="295,166 286,210 288,160" fill="rgb(162,166,169)" fill-opacity="0.5019607843137255"/>
<polygon points="290,206 418,176 296,167" fill="rgb(0,0,0)" fill-opacity="0.5019607843137255"/>
<polygon points="411,192 341,268 385,247" fill="rgb(219,217,215)" fill-opacity="0.5019607843137255"/>
<polygon points="254,390 231,424 262,431" fill="rgb(61,107,172)" fill-opacity="0.5019607843137255"/>
<polygon points="587,290 600,273 653,279" fill="rgb(36,44,35)" fill-opacity="0.5019607843137255"/>
<polygon points="421,322 405,342 464,330" fill="rgb(119,141,172)" fill-opacity="0.5019607843137255"/>
<polygon points="239,283 325,298 256,288" fill="rgb(255,255,255)" fill-opacity="0.5019607843137255"/>
<polygon points="505,305 581,284 517,293" fill="rgb(8,8,13)" fill-opacity="0.5019607843137255"/>
<polygon points="0,419 0,511 91,511" fill="rgb(44,86,142)" fill-opacity="0.5019607843137255"/>
<polygon points="16,286 159,271 0,267" fill="rgb(16,14,9)" fill-opacity="0.5019607843137255"/>
<polygon points="221,116 225,95 230,113" fill="rgb(169,128,45)" fill-opacity="0.5019607843137255"/>
<polygon points="280,267 298,255 288,249" fill="rgb(95,113,137)" fill-opacity="0.5019607843137255"/>
<polygon points="469,252 483,252 476,242" fill="rgb(178,177,172)" fill-opacity="0.5019607843137255"/>
<polygon points="222,97 231,84 210,108" fill="rgb(37,31,26)" fill-opacity="0.5019607843137255"/>
<polygon points="380,366 385,356 420,380" fill="rgb(160,186,216)" fill-opacity="0.5019607843137255"/>
<polygon points="553,314 594,327 584,319" fill="rgb(115,129,148)" fill-opacity="0.5019607843137255"/>
<polygon points="173,71 223,262 237,222" fill="rgb(0,0,0)" fill-opacity="0.5019607843137255"/>
<polygon points="659,283 649,294 602,288" fill="rgb(57,70,53)" fill-opacity="0.5019607843137255"/>
<polygon points="731,297 755,298 741,291" fill="rgb(45,97,162)" fill-opacity="0.5019607843137255"/>
<polygon points="416,282 350,302 423,303" fill="rgb(228,228,226)" fill-opacity="0.5019607843137255"/>
<polygon points="280,275 248,275 262,283" fill="rgb(232,230,225)" fill-opacity="0.5019607843137255"/>
<polygon points="281,151 251,195 258,142" fill="rgb(234,230,225)" fill-opacity="0.5019607843137255"/>
<polygon points="623,192 521,189 568,235" fill="rgb(0,0,0)" fill-opacity="0.5019607843137255"/>
<polygon points="400,255 351,268 414,282" fill="rgb(200,200,199)" fill-opacity="0.5019607843137255"/>
<polygon points="321,292 410,191 312,241" fill="rgb(227,226,226)" fill-opacity="0.5019607843137255"/>
<polygon points="300,127 263,109 278,108" fill="rgb(158,156,151)" fill-opacity="0.5019607843137255"/>
<polygon points="288,328 305,454 411,450" fill="rgb(62,106,166)" fill-opacity="0.5019607843137255"/>
<polygon points="344,351 382,366 338,339" fill="rgb(229,239,251)" fill-opacity="0.5019607843137255"/>
<polygon points="232,247 249,191 236,285" fill="rgb(246,245,242)" fill-opacity="0.5019607843137255"/>
<polygon points="280,458 260,436 276,473" fill="rgb(153,159,159)" fill-opacity="0.5019607843137255"/>
<polygon points="836,511 794,511 836,450" fill="rgb(35,83,141)" fill-opacity="0.5019607843137255"/>
<polygon points="246,270 278,153 272,112" fill="rgb(230,223,215)" fill-opacity="0.5019607843137255"/>
<polygon points="430,361 432,383 357,306" fill="rgb(152,175,200)" fill-opacity="0.5019607843137255"/>
<polygon points="430,265 466,299 431,305" fill="rgb(190,197,202)" fill-opacity="0.5019607843137255"/>
<polygon points="197,308 204,283 185,307" fill="rgb(95,98,88)" fill-opacity="0.5019607843137255"/>
<polygon points="463,271 451,293 423,271" fill="rgb(190,198,207)" fill-opacity="0.5019607843137255"/>
<polygon points="297,152 379,184 297,235" fill="rgb(0,0,0)" fill-opacity="0.5019607843137255"/>
<polygon points="494,204 454,179 439,184" fill="rgb(224,223,219)" fill-opacity="0.5019607843137255"/>
<polygon points="544,291 579,278 595,299" fill="rgb(9,11,19)" fill-opacity="0.5019607843137255"/>
<polygon points="640,222 613,258 798,274" fill="rgb(0,0,0)" fill-opacity="0.5019607843137255"/>
<polygon points="78,302 49,300 20,322" fill="rgb(50,97,147)" fill-opacity="0.5019607843137255"/>
<polygon points="153,289 124,270 203,262" fill="rgb(28,28,23)" fill-opacity="0.5019607843137255"/>
<polygon points="263,75 244,78 285,85" fill="rgb(134,137,139)" fill-opacity="0.5019607843137255"/>
<polygon points="678,289 719,281 646,259" fill="rgb(30,32,21)" fill-opacity="0.5019607843137255"/>
<polygon points="777,291 766,310 759,293" fill="rgb(53,96,136)" fill-opacity="0.5019607843137255"/>
<polygon points="836,308 836,295 778,294" fill="rgb(62,100,128)" fill-opacity="0.5019607843137255"/>
<polygon points="234,280 126,292 205,272" fill="rgb(46,46,41)" fill-opacity="0.5019607843137255"/>
<polygon points="17,293 58,305 0,302" fill="rgb(56,63,54)" fill-opacity="0.5019607843137255"/>
<polygon points="590,255 576,276 595,256" fill="rgb(101,121,141)" fill-opacity="0.5019607843137255"/>
<polygon points="218,95 237,95 211,102" fill="rgb(22,20,19)" fill-opacity="0.5019607843137255"/>
<polygon points="299,129 288,115 299,111" fill="rgb(140,148,149)" fill-opacity="0.5019607843137255"/>
<polygon points="490,190 525,235 547,216" fill="rgb(159,178,204)" fill-opacity="0.5019607843137255"/>
<polygon points="318,237 317,230 265,266" fill="rgb(134,145,157)" fill-opacity="0.5019607843137255"/>
<polygon points="486,301 504,313 536,296" fill="rgb(32,43,53)" fill-opacity="0.5019607843137255"/>
<polygon points="422,374 413,376 415,370" fill="rgb(192,212,236)" fill-opacity="0.5019607843137255"/>
<polygon points="273,276 259,251 257,260" fill="rgb(184,183,181)" fill-opacity="0.5019607843137255"/>
<polygon points="433,309 417,319 451,319" fill="rgb(127,135,142)" fill-opacity="0.5019607843137255"/>
<polygon points="701,386 619,316 689,312" fill="rgb(64,112,172)" fill-opacity="0.5019607843137255"/>
<polygon points="437,204 443,221 388,277" fill="rgb(199,198,197)" fill-opacity="0.5019607843137255"/>
<polygon points="813,254 819,278 792,282" fill="rgb(21,22,16)" fill-opacity="0.5019607843137255"/>
<polygon points="1,466 37,511 0,511" fill="rgb(40,83,137)" fill-opacity="0.5019607843137255"/>
<polygon points="433,511 628,404 836,422" fill="rgb(51,98,157)" fill-opacity="0.5019607843137255"/>
<polygon points="382,187 350,203 338,213" fill="rgb(189,202,215)" fill-opacity="0.5019607843137255"/>
<polygon points="672,290 693,288 728,307" fill="rgb(58,98,129)" fill-opacity="0.5019607843137255"/>
<polygon points="274,228 260,242 271,273" fill="rgb(149,141,130)" fill-opacity="0.5019607843137255"/>
<polygon points="378,511 273,511 303,434" fill="rgb(62,100,153)" fill-opacity="0.5019607843137255"/>
<polygon points="471,380 465,324 444,318" fill="rgb(89,113,146)" fill-opacity="0.5019607843137255"/>
<polygon points="207,122 217,125 199,132" fill="rgb(217,94,83)" fill-opacity="0.5019607843137255"/>
<polygon points="536,248 488,202 493,240" fill="rgb(134,155,180)" fill-opacity="0.5019607843137255"/>
<polygon points="148,293 153,302 115,289" fill="rgb(71,77,68)" fill-opacity="0.5019607843137255"/>
<polygon points="592,186 296,163 301,118" fill="rgb(0,0,0)" fill-opacity="0.5019607843137255"/>
<polygon points="421,271 442,238 396,288" fill="rgb(173,173,171)" fill-opacity="0.5019607843137255"/>
<polygon points="417,224 357,275 390,239" fill="rgb(183,183,183)" fill-opacity="0.5019607843137255"/>
<polygon points="131,295 122,292 152,317" fill="rgb(62,103,158)" fill-opacity="0.5019607843137255"/>
<polygon points="428,331 394,325 415,312" fill="rgb(143,161,182)" fill-opacity="0.5019607843137255"/>
<polygon points="738,300 740,287 727,293" fill="rgb(44,85,115)" fill-opacity="0.5019607843137255"/>
<polygon points="248,92 235,101 256,122" fill="rgb(173,173,172)" fill-opacity="0.5019607843137255"/>
<polygon points="490,371 468,363 460,379" fill="rgb(91,119,160)" fill-opacity="0.5019607843137255"/>
<polygon points="490,186 555,219 534,0" fill="rgb(0,0,0)" fill-opacity="0.5019607843137255"/>
<polygon points="458,313 486,298 494,335" fill="rgb(49,72,99)" fill-opacity="0.5019607843137255"/>
<polygon points="290,113 286,97 281,112" fill="rgb(97,102,101)" fill-opacity="0.5019607843137255"/>
<polygon points="599,303 590,292 534,302" fill="rgb(26,36,49)" fill-opacity="0.5019607843137255"/>
<polygon points="449,230 458,242 462,230" fill="rgb(192,192,190)" fill-opacity="0.5019607843137255"/>
<polygon points="454,320 458,308 436,307" fill="rgb(83,92,99)" fill-opacity="0.5019607843137255"/>
<polygon points="281,110 291,137 272,105" fill="rgb(170,166,163)" fill-opacity="0.5019607843137255"/>
<polygon points="302,446 583,445 621,386" fill="rgb(61,104,163)" fill-opacity="0.5019607843137255"/>
<polygon points="609,245 623,225 641,218" fill="rgb(194,195,196)" fill-opacity="0.5019607843137255"/>
<polygon points="283,267 331,226 385,207" fill="rgb(231,230,227)" fill-opacity="0.5019607843137255"/>
<polygon points="381,322 340,304 387,310" fill="rgb(169,168,164)" fill-opacity="0.5019607843137255"/>
<polygon points="341,266 345,291 372,301" fill="rgb(228,227,225)" fill-opacity="0.5019607843137255"/>
<polygon points="444,385 461,358 435,366" fill="rgb(124,146,177)" fill-opacity="0.5019607843137255"/>
<polygon points="267,318 304,322 267,311" fill="rgb(120,130,126)" fill-opacity="0.5019607843137255"/>
<polygon points="615,227 581,233 646,215" fill="rgb(10,6,2)" fill-opacity="0.5019607843137255"/>
<polygon points="296,463 301,412 287,407" fill="rgb(79,88,97)" fill-opacity="0.5019607843137255"/>
<polygon points="276,232 272,207 297,122" fill="rgb(148,142,136)" fill-opacity="0.5019607843137255"/>
<polygon points="260,415 209,342 240,340" fill="rgb(67,114,177)" fill-opacity="0.5019607843137255"/>
<polygon points="106,294 134,303 126,302" fill="rgb(62,73,50)" fill-opacity="0.5019607843137255"/>
<polygon points="30,307 19,304 38,300" fill="rgb(58,74,63)" fill-opacity="0.5019607843137255"/>
<polygon points="450,354 447,372 426,340" fill="rgb(115,134,157)" fill-opacity="0.5019607843137255"/>
<polygon points="248,341 255,288 257,372" fill="rgb(175,175,172)" fill-opacity="0.5019607843137255"/>
<polygon points="260,125 224,122 238,215" fill="rgb(0,0,0)" fill-opacity="0.5019607843137255"/>
<polygon points="692,276 687,259 675,272" fill="rgb(6,6,4)" fill-opacity="0.5019607843137255"/>
<polygon points="555,399 563,322 618,327" fill="rgb(60,110,173)" fill-opacity="0.5019607843137255"/></svg>